<svg width="382" height="400" viewBox="0 0 382 400" fill="none" xmlns="http://www.w3.org/2000/svg">
<path d="M61.7976 0L30.8988 37H4.29776L35.1966 0H61.7976ZM0 74H26.5959L57.4947 37H30.8988L0 74ZM88.3936 0L57.4947 37H84.0958L114.995 0H88.3936ZM53.197 74H79.798L110.697 37H84.0958L53.197 74ZM141.591 0L110.692 37H137.293L168.192 0H141.591ZM106.399 74H132.995L163.894 37H137.298L106.399 74ZM194.793 0L163.894 37H190.495L221.394 0H194.787H194.793ZM159.601 74H186.202L217.101 37H190.5L159.601 74ZM247.995 0L217.096 37H243.697L274.596 0H247.995ZM212.803 74H239.399L270.298 37H243.702L212.803 74ZM301.197 0L270.298 37H296.899L327.798 0H301.197ZM266.005 74H292.601L323.5 37H296.899L266 74H266.005ZM354.399 0L323.5 37H350.101L381 0H354.399ZM319.202 74H345.803L376.702 37H350.106L319.207 74H319.202Z" fill="#82C708" fill-opacity="0.25"/>
<path d="M11.7248 187.724H65.2776C69.2795 187.724 72.828 185.553 75.0262 181.762C77.658 177.225 77.658 171.362 75.0262 166.834L48.2448 120.695C46.0763 116.953 42.4292 114.724 38.4963 114.724C34.5634 114.724 30.9163 116.953 28.7478 120.695L1.96646 166.834C-0.655487 171.362 -0.655487 177.215 1.96646 181.762C4.1547 185.553 7.71308 187.724 11.715 187.724H11.7248ZM7.25964 169.879L34.0409 123.739C35.1252 121.873 36.7516 120.803 38.5062 120.803C40.2607 120.803 41.8871 121.873 42.9713 123.739L69.7526 169.879C71.31 172.56 71.3002 176.027 69.7526 178.718C69.1218 179.808 67.7024 181.635 65.2973 181.635H11.7445C9.32958 181.635 7.92002 179.808 7.28918 178.718C5.73178 176.027 5.72192 172.55 7.28918 169.879H7.25964Z" fill="#82C708" fill-opacity="0.25"/>
<path d="M44.4696 162.385L46.924 137.342H30.0883L32.5329 162.385H44.4696Z" fill="#82C708" fill-opacity="0.25"/>
<path d="M44.2626 166.441H32.7497V176.39H44.2626V166.441Z" fill="#82C708" fill-opacity="0.25"/>
<path d="M152.736 148.276C152.24 146.415 151.269 144.647 149.813 143.19C148.357 141.733 146.595 140.763 144.733 140.263C145.459 137.548 148.249 127.124 148.919 124.617C128.659 119.037 109.672 138.06 115.243 158.33C117.691 157.674 128.222 154.847 130.872 154.139C131.772 157.885 135.13 161.247 138.873 162.148C138.147 164.864 135.357 175.287 134.686 177.794C154.946 183.374 173.934 164.351 168.363 144.081L164.67 145.073L152.733 148.273L152.736 148.276ZM136.601 156.419C129.935 149.32 139.925 139.328 147.007 145.998C153.677 153.098 143.687 163.09 136.601 156.419Z" fill="#82C708" fill-opacity="0.25"/>
<path d="M177.031 141.761C175.433 135.765 172.292 130.094 167.596 125.394C153.618 111.26 130.174 111.074 116.015 125.394C93.0676 148.553 109.6 187.665 141.806 187.721C165.442 187.998 183.421 164.565 177.031 141.761ZM164.79 174.219C144.158 194.687 109.389 179.938 109.299 151.209C109.398 122.346 144.161 107.806 164.79 128.199C177.344 140.689 177.546 161.583 164.79 174.219Z" fill="#82C708" fill-opacity="0.25"/>
<path d="M217.087 137.231H212.809V129.184C212.809 126.575 213.881 124.196 215.591 122.49C217.298 120.78 219.677 119.708 222.285 119.708H230.333V123.989H222.285C220.857 123.989 219.569 124.568 218.618 125.519C217.67 126.47 217.09 127.759 217.09 129.187V137.235L217.087 137.231ZM269.832 125.516C270.779 126.467 271.359 127.756 271.359 129.184V137.231H275.64V129.184C275.64 126.575 274.568 124.196 272.858 122.49C271.151 120.78 268.772 119.708 266.164 119.708H258.116V123.989H266.164C267.592 123.989 268.881 124.568 269.832 125.519V125.516ZM218.614 176.733C217.667 175.782 217.087 174.493 217.087 173.065V165.018H212.809V173.065C212.809 175.671 213.881 178.053 215.591 179.76C217.298 181.469 219.677 182.541 222.285 182.541H230.333V178.263H222.285C220.857 178.263 219.569 177.684 218.618 176.733H218.614ZM271.359 173.065C271.359 174.493 270.779 175.782 269.832 176.733C268.881 177.681 267.592 178.26 266.164 178.263H258.116V182.541H266.164C268.772 182.541 271.151 181.469 272.858 179.76C274.568 178.053 275.64 175.674 275.64 173.065V165.018H271.359V173.065ZM255.133 149.148C254.476 148.928 253.826 148.693 253.181 148.426C249.917 147.079 247.541 144.821 246.202 141.556C245.843 140.682 245.53 139.793 245.239 138.892V114.724H241.091V139.409C241.001 139.688 240.924 139.967 240.828 140.242C239.369 144.421 236.615 147.277 232.43 148.77C232.031 148.913 231.619 149.021 231.216 149.151H206.667V153.299H231.08C231.306 153.373 231.535 153.432 231.761 153.51C233.744 154.198 235.615 155.093 237.191 156.518C239.016 158.163 240.112 160.26 240.921 162.533C240.983 162.713 241.032 162.896 241.094 163.075V187.724H245.242V163.515C245.397 163.023 245.549 162.53 245.728 162.041C247.132 158.19 249.656 155.455 253.501 153.953C254.111 153.714 254.727 153.497 255.347 153.296H279.667V149.148H255.136H255.133Z" fill="#82C708" fill-opacity="0.25"/>
<path d="M378.968 168.539C376.283 164.522 371.937 162.671 367.712 162.978C364.515 163.21 361.344 162.254 359.076 159.985L357.726 158.635C353.638 154.545 353.638 147.919 357.726 143.829L359.076 142.479C361.344 140.21 364.511 139.254 367.708 139.486C371.937 139.793 376.291 137.938 378.976 133.909C381.649 129.896 381.68 124.49 379.036 120.458C374.554 113.619 365.281 112.924 359.831 118.379C357.116 121.092 355.932 124.752 356.27 128.299C356.562 131.391 355.458 134.452 353.262 136.648L351.905 138.006C347.816 142.096 341.191 142.096 337.103 138.006L335.752 136.656C333.484 134.387 332.529 131.22 332.76 128.018C333.064 123.792 331.217 119.445 327.2 116.76C323.192 114.078 317.787 114.04 313.748 116.68C306.895 121.156 306.197 130.442 311.655 135.901C314.37 138.617 318.03 139.801 321.572 139.463C324.663 139.171 327.724 140.275 329.92 142.471L331.277 143.833C335.366 147.922 335.366 154.549 331.277 158.639L329.927 159.989C327.659 162.257 324.492 163.213 321.292 162.982C317.067 162.675 312.724 164.526 310.035 168.543C307.354 172.553 307.316 177.958 309.956 181.998C314.431 188.853 323.715 189.555 329.172 184.092C331.888 181.376 333.071 177.719 332.734 174.173C332.442 171.081 333.545 168.02 335.741 165.823L337.099 164.465C341.187 160.376 347.813 160.376 351.901 164.465L353.259 165.823C355.454 168.02 356.558 171.081 356.266 174.173C355.929 177.719 357.116 181.376 359.827 184.092C365.285 189.551 374.569 188.853 379.044 181.998C381.68 177.958 381.646 172.553 378.964 168.543L378.968 168.539Z" fill="#82C708" fill-opacity="0.25"/>
<path d="M17.1998 326.889L53.0329 338.681C61.6574 341.43 71.198 344.138 81.6549 346.808C74.253 348.641 64.7095 351.427 53.0329 355.167L17.1998 367.074V387.797L98.7131 358.375V335.478L17.1998 306.972V326.892V326.889Z" fill="#82C708" fill-opacity="0.25"/>
<path d="M44.4489 304.905V286.475C35.7493 286.475 31.3966 282.393 31.3966 274.226C31.3966 270.561 32.2752 267.74 34.0296 265.754C35.7869 263.772 38.3043 262.777 41.5847 262.777C44.6397 262.777 47.1773 263.714 49.1976 265.584C51.2207 267.454 53.1485 270.604 54.978 275.029L57.8393 281.44C60.8943 289.151 64.9002 294.949 69.8598 298.842C71.9986 300.371 74.438 301.666 77.1866 302.735C81.2329 304.186 86.0018 305.064 91.4961 305.368L98.7101 305.825V242.858H82.6809V284.073C80.1635 283.769 78.1201 282.87 76.5565 281.382C74.9929 279.893 73.3715 277.356 71.6922 273.769L68.487 267.015C64.8221 258.925 60.8567 252.971 56.5792 249.156C52.3826 245.416 46.7726 243.546 39.7494 243.546C32.7261 243.546 26.8127 246.219 22.2317 251.56C17.6536 256.98 15.3616 264.384 15.3616 273.772C15.3616 284.076 17.9195 291.862 23.0323 297.128C28.148 302.394 35.2811 304.989 44.4402 304.914L44.4489 304.905Z" fill="#82C708" fill-opacity="0.25"/>
<path d="M373.346 232.311H116.051V263.48H377.146V236.112C377.146 235.069 376.724 234.127 376.028 233.427C375.331 232.731 374.389 232.309 373.343 232.309L373.346 232.311Z" fill="#82C708" fill-opacity="0.25"/>
<path d="M198.978 313.154C201.403 313.154 203.732 312.735 205.897 311.978C208.065 312.735 210.391 313.154 212.819 313.154C224.38 313.154 233.753 303.781 233.753 292.22C233.753 280.656 224.38 271.286 212.819 271.286C210.391 271.286 208.065 271.705 205.897 272.462C203.73 271.705 201.403 271.286 198.978 271.286C187.414 271.286 178.044 280.659 178.044 292.22C178.044 303.781 187.414 313.151 198.978 313.154ZM185.952 279.197C189.29 275.861 193.885 273.804 198.978 273.801C200.122 273.801 201.238 273.91 202.325 274.11C198.319 276.437 195.157 280.049 193.406 284.388C194.929 282.174 197.076 280.431 199.596 279.405C201.209 278.749 202.966 278.379 204.813 278.379C212.458 278.379 218.655 284.575 218.655 292.22C218.655 299.865 212.458 306.061 204.813 306.061C202.966 306.061 201.206 305.691 199.596 305.035C197.076 304.009 194.929 302.266 193.406 300.053C195.157 304.391 198.319 308.004 202.325 310.33C201.238 310.53 200.122 310.64 198.978 310.64C193.888 310.64 189.29 308.579 185.952 305.244C182.616 301.905 180.559 297.307 180.556 292.22C180.556 287.13 182.616 282.532 185.952 279.194V279.197Z" fill="#82C708" fill-opacity="0.25"/>
<path d="M204.813 300.518C209.397 300.518 213.111 296.804 213.111 292.22C213.111 287.636 209.397 283.922 204.813 283.922C200.229 283.922 196.515 287.636 196.515 292.22C196.515 296.804 200.229 300.518 204.813 300.518Z" fill="#82C708" fill-opacity="0.25"/>
<path d="M158.867 283.674L164.894 289.7V277.399C164.894 275.124 163.035 273.266 160.763 273.266H148.46L154.486 279.292L147.48 286.295V290.68H151.864L158.87 283.677L158.867 283.674Z" fill="#82C708" fill-opacity="0.25"/>
<path d="M140.009 290.677H144.393V286.292L137.39 279.289L143.413 273.263H131.11C128.838 273.263 126.979 275.122 126.979 277.396V289.697L133.006 283.671L140.009 290.674V290.677Z" fill="#82C708" fill-opacity="0.25"/>
<path d="M131.113 311.177H143.416L137.393 305.151L144.396 298.148V293.764H140.012L133.008 300.767L126.982 294.74V307.044C126.982 309.316 128.841 311.177 131.113 311.177Z" fill="#82C708" fill-opacity="0.25"/>
<path d="M148.46 311.177H160.763C163.035 311.177 164.893 309.319 164.893 307.044V294.74L158.867 300.767L151.861 293.764H147.477V298.148L154.483 305.151L148.457 311.177H148.46Z" fill="#82C708" fill-opacity="0.25"/>
<path d="M373.346 228.447H7.66779C3.43649 228.453 0.0086707 231.884 0 236.115V392.332C0.0086707 396.564 3.43649 399.991 7.66779 400H114.115C114.115 400 114.118 400 114.121 400C114.124 400 114.124 400 114.127 400H373.346C377.574 399.994 381.005 396.564 381.014 392.332V236.115C381.005 231.884 377.577 228.456 373.346 228.447ZM112.187 396.136H7.66779C6.62441 396.136 5.6822 395.714 4.98276 395.017C4.28621 394.318 3.86424 393.378 3.86424 392.335V236.118C3.86424 235.075 4.28621 234.132 4.98276 233.433C5.6822 232.736 6.62152 232.314 7.66779 232.314H112.187V396.136ZM377.149 263.483V392.332C377.149 393.376 376.727 394.318 376.031 395.014C375.334 395.711 374.392 396.133 373.346 396.133H116.051V232.312H373.346C374.389 232.312 375.331 232.734 376.031 233.43C376.727 234.13 377.149 235.069 377.149 236.115V263.483Z" fill="#82C708" fill-opacity="0.25"/>
<path d="M231.64 368.635H227.279V384.823H231.64V368.635Z" fill="#82C708" fill-opacity="0.25"/>
<path d="M236.002 368.635H234.548V384.823H236.002V368.635Z" fill="#82C708" fill-opacity="0.25"/>
<path d="M246.176 368.635H244.722V384.823H246.176V368.635Z" fill="#82C708" fill-opacity="0.25"/>
<path d="M225.826 368.635H222.918V384.823H225.826V368.635Z" fill="#82C708" fill-opacity="0.25"/>
<path d="M209.837 368.635H206.929V384.823H209.837V368.635Z" fill="#82C708" fill-opacity="0.25"/>
<path d="M214.198 368.635H211.29V384.823H214.198V368.635Z" fill="#82C708" fill-opacity="0.25"/>
<path d="M220.01 368.635H217.103V384.823H220.01V368.635Z" fill="#82C708" fill-opacity="0.25"/>
<path d="M278.156 368.635H275.248V384.823H278.156V368.635Z" fill="#82C708" fill-opacity="0.25"/>
<path d="M283.971 368.635H281.064V384.823H283.971V368.635Z" fill="#82C708" fill-opacity="0.25"/>
<path d="M273.795 368.635H270.887V384.823H273.795V368.635Z" fill="#82C708" fill-opacity="0.25"/>
<path d="M204.021 368.635H202.568V384.823H204.021V368.635Z" fill="#82C708" fill-opacity="0.25"/>
<path d="M263.621 368.635H259.259V384.823H263.621V368.635Z" fill="#82C708" fill-opacity="0.25"/>
<path d="M269.433 368.635H266.526V384.823H269.433V368.635Z" fill="#82C708" fill-opacity="0.25"/>
<path d="M256.352 368.635H254.898V384.823H256.352V368.635Z" fill="#82C708" fill-opacity="0.25"/>
<path d="M251.991 368.635H249.083V384.823H251.991V368.635Z" fill="#82C708" fill-opacity="0.25"/>
<path d="M243.271 368.635H238.909V384.823H243.271V368.635Z" fill="#82C708" fill-opacity="0.25"/>
<path d="M145.879 368.635H142.971V384.823H145.879V368.635Z" fill="#82C708" fill-opacity="0.25"/>
<path d="M132.795 368.635H131.341V384.823H132.795V368.635Z" fill="#82C708" fill-opacity="0.25"/>
<path d="M140.064 368.635H135.702V384.823H140.064V368.635Z" fill="#82C708" fill-opacity="0.25"/>
<path d="M151.691 368.635H148.783V384.823H151.691V368.635Z" fill="#82C708" fill-opacity="0.25"/>
<path d="M156.052 368.635H153.145V384.823H156.052V368.635Z" fill="#82C708" fill-opacity="0.25"/>
<path d="M129.887 368.635H126.979V384.823H129.887V368.635Z" fill="#82C708" fill-opacity="0.25"/>
<path d="M288.33 368.635H286.876V384.823H288.33V368.635Z" fill="#82C708" fill-opacity="0.25"/>
<path d="M340.663 368.635H334.848V384.823H340.663V368.635Z" fill="#82C708" fill-opacity="0.25"/>
<path d="M199.66 368.635H195.299V384.823H199.66V368.635Z" fill="#82C708" fill-opacity="0.25"/>
<path d="M160.414 368.635H158.96V384.823H160.414V368.635Z" fill="#82C708" fill-opacity="0.25"/>
<path d="M189.487 368.635H185.125V384.823H189.487V368.635Z" fill="#82C708" fill-opacity="0.25"/>
<path d="M193.848 368.635H190.94V384.823H193.848V368.635Z" fill="#82C708" fill-opacity="0.25"/>
<path d="M183.671 368.635H177.856V384.823H183.671V368.635Z" fill="#82C708" fill-opacity="0.25"/>
<path d="M163.321 368.635H161.867V384.823H163.321V368.635Z" fill="#82C708" fill-opacity="0.25"/>
<path d="M169.137 368.635H166.229V384.823H169.137V368.635Z" fill="#82C708" fill-opacity="0.25"/>
<path d="M176.402 368.635H174.949V384.823H176.402V368.635Z" fill="#82C708" fill-opacity="0.25"/>
<path d="M132.795 324.851H131.341V341.039H132.795V324.851Z" fill="#82C708" fill-opacity="0.25"/>
<path d="M301.414 324.851H298.506V341.039H301.414V324.851Z" fill="#82C708" fill-opacity="0.25"/>
<path d="M307.229 324.851H302.867V341.039H307.229V324.851Z" fill="#82C708" fill-opacity="0.25"/>
<path d="M246.176 324.851H244.722V341.039H246.176V324.851Z" fill="#82C708" fill-opacity="0.25"/>
<path d="M317.402 324.851H313.041V341.039H317.402V324.851Z" fill="#82C708" fill-opacity="0.25"/>
<path d="M323.218 324.851H318.856V341.039H323.218V324.851Z" fill="#82C708" fill-opacity="0.25"/>
<path d="M311.59 324.851H308.683V341.039H311.59V324.851Z" fill="#82C708" fill-opacity="0.25"/>
<path d="M288.33 324.851H286.876V341.039H288.33V324.851Z" fill="#82C708" fill-opacity="0.25"/>
<path d="M327.579 324.851H324.671V341.039H327.579V324.851Z" fill="#82C708" fill-opacity="0.25"/>
<path d="M263.621 324.851H259.26V341.039H263.621V324.851Z" fill="#82C708" fill-opacity="0.25"/>
<path d="M283.971 324.851H281.064V341.039H283.971V324.851Z" fill="#82C708" fill-opacity="0.25"/>
<path d="M251.991 324.851H249.083V341.039H251.991V324.851Z" fill="#82C708" fill-opacity="0.25"/>
<path d="M256.352 324.851H254.898V341.039H256.352V324.851Z" fill="#82C708" fill-opacity="0.25"/>
<path d="M269.433 324.851H266.526V341.039H269.433V324.851Z" fill="#82C708" fill-opacity="0.25"/>
<path d="M278.156 324.851H275.248V341.039H278.156V324.851Z" fill="#82C708" fill-opacity="0.25"/>
<path d="M273.795 324.851H270.887V341.039H273.795V324.851Z" fill="#82C708" fill-opacity="0.25"/>
<path d="M295.598 324.851H291.237V341.039H295.598V324.851Z" fill="#82C708" fill-opacity="0.25"/>
<path d="M362.464 368.635H358.103V384.823H362.464V368.635Z" fill="#82C708" fill-opacity="0.25"/>
<path d="M333.394 324.851H329.033V341.039H333.394V324.851Z" fill="#82C708" fill-opacity="0.25"/>
<path d="M369.733 368.635H366.826V384.823H369.733V368.635Z" fill="#82C708" fill-opacity="0.25"/>
<path d="M346.476 368.635H345.022V384.823H346.476V368.635Z" fill="#82C708" fill-opacity="0.25"/>
<path d="M343.568 368.635H342.114V384.823H343.568V368.635Z" fill="#82C708" fill-opacity="0.25"/>
<path d="M353.744 368.635H350.837V384.823H353.744V368.635Z" fill="#82C708" fill-opacity="0.25"/>
<path d="M369.733 324.851H366.826V341.039H369.733V324.851Z" fill="#82C708" fill-opacity="0.25"/>
<path d="M365.372 368.635H363.918V384.823H365.372V368.635Z" fill="#82C708" fill-opacity="0.25"/>
<path d="M346.476 324.851H345.022V341.039H346.476V324.851Z" fill="#82C708" fill-opacity="0.25"/>
<path d="M343.568 324.851H342.114V341.039H343.568V324.851Z" fill="#82C708" fill-opacity="0.25"/>
<path d="M340.663 324.851H334.848V341.039H340.663V324.851Z" fill="#82C708" fill-opacity="0.25"/>
<path d="M362.464 324.851H358.103V341.039H362.464V324.851Z" fill="#82C708" fill-opacity="0.25"/>
<path d="M365.372 324.851H363.918V341.039H365.372V324.851Z" fill="#82C708" fill-opacity="0.25"/>
<path d="M353.744 324.851H350.837V341.039H353.744V324.851Z" fill="#82C708" fill-opacity="0.25"/>
<path d="M199.66 324.851H195.299V341.039H199.66V324.851Z" fill="#82C708" fill-opacity="0.25"/>
<path d="M140.064 324.851H135.702V341.039H140.064V324.851Z" fill="#82C708" fill-opacity="0.25"/>
<path d="M129.887 324.851H126.979V341.039H129.887V324.851Z" fill="#82C708" fill-opacity="0.25"/>
<path d="M145.879 324.851H142.971V341.039H145.879V324.851Z" fill="#82C708" fill-opacity="0.25"/>
<path d="M160.414 324.851H158.96V341.039H160.414V324.851Z" fill="#82C708" fill-opacity="0.25"/>
<path d="M151.691 324.851H148.783V341.039H151.691V324.851Z" fill="#82C708" fill-opacity="0.25"/>
<path d="M333.394 368.635H329.033V384.823H333.394V368.635Z" fill="#82C708" fill-opacity="0.25"/>
<path d="M163.321 324.851H161.867V341.039H163.321V324.851Z" fill="#82C708" fill-opacity="0.25"/>
<path d="M156.052 324.851H153.145V341.039H156.052V324.851Z" fill="#82C708" fill-opacity="0.25"/>
<path d="M307.229 368.635H302.867V384.823H307.229V368.635Z" fill="#82C708" fill-opacity="0.25"/>
<path d="M327.579 368.635H324.671V384.823H327.579V368.635Z" fill="#82C708" fill-opacity="0.25"/>
<path d="M311.59 368.635H308.683V384.823H311.59V368.635Z" fill="#82C708" fill-opacity="0.25"/>
<path d="M301.414 368.635H298.506V384.823H301.414V368.635Z" fill="#82C708" fill-opacity="0.25"/>
<path d="M317.402 368.635H313.041V384.823H317.402V368.635Z" fill="#82C708" fill-opacity="0.25"/>
<path d="M323.218 368.635H318.856V384.823H323.218V368.635Z" fill="#82C708" fill-opacity="0.25"/>
<path d="M176.402 324.851H174.949V341.039H176.402V324.851Z" fill="#82C708" fill-opacity="0.25"/>
<path d="M214.198 324.851H211.29V341.039H214.198V324.851Z" fill="#82C708" fill-opacity="0.25"/>
<path d="M204.022 324.851H202.568V341.039H204.022V324.851Z" fill="#82C708" fill-opacity="0.25"/>
<path d="M209.837 324.851H206.929V341.039H209.837V324.851Z" fill="#82C708" fill-opacity="0.25"/>
<path d="M220.01 324.851H217.103V341.039H220.01V324.851Z" fill="#82C708" fill-opacity="0.25"/>
<path d="M236.002 324.851H234.548V341.039H236.002V324.851Z" fill="#82C708" fill-opacity="0.25"/>
<path d="M225.825 324.851H222.918V341.039H225.825V324.851Z" fill="#82C708" fill-opacity="0.25"/>
<path d="M231.641 324.851H227.279V341.039H231.641V324.851Z" fill="#82C708" fill-opacity="0.25"/>
<path d="M169.136 324.851H166.229V341.039H169.136V324.851Z" fill="#82C708" fill-opacity="0.25"/>
<path d="M189.486 324.851H185.125V341.039H189.486V324.851Z" fill="#82C708" fill-opacity="0.25"/>
<path d="M243.271 324.851H238.909V341.039H243.271V324.851Z" fill="#82C708" fill-opacity="0.25"/>
<path d="M183.671 324.851H177.856V341.039H183.671V324.851Z" fill="#82C708" fill-opacity="0.25"/>
<path d="M295.598 368.635H291.237V384.823H295.598V368.635Z" fill="#82C708" fill-opacity="0.25"/>
<path d="M193.848 324.851H190.94V341.039H193.848V324.851Z" fill="#82C708" fill-opacity="0.25"/>
<path d="M130.566 358.641H128.54V350.588H130.566V348.843H126.555V360.386H130.566V358.641Z" fill="#82C708" fill-opacity="0.25"/>
<path d="M144.017 349.218C143.041 348.672 141.96 348.401 140.769 348.401C139.578 348.401 138.497 348.672 137.52 349.218C136.535 349.773 135.763 350.525 135.199 351.473C134.636 352.421 134.352 353.47 134.352 354.615C134.352 355.759 134.636 356.785 135.199 357.742C135.772 358.707 136.546 359.464 137.52 360.011C138.494 360.557 139.578 360.829 140.769 360.829C141.96 360.829 143.041 360.554 144.017 360.011C144.991 359.464 145.766 358.71 146.338 357.742C146.902 356.785 147.185 355.742 147.185 354.615C147.185 353.487 146.902 352.421 146.338 351.473C145.775 350.525 145 349.773 144.017 349.218Z" fill="#82C708" fill-opacity="0.25"/>
<path d="M153.775 349.837H151.506V359.395H153.775V349.837Z" fill="#82C708" fill-opacity="0.25"/>
<path d="M159.385 349.837H155.466V359.395H159.385C160.96 359.395 162.168 358.973 163.009 358.126C163.85 357.279 164.272 356.112 164.272 354.617C164.272 353.123 163.85 351.953 163.009 351.106C162.168 350.259 160.96 349.837 159.385 349.837ZM161.243 356.756C160.801 357.236 160.168 357.473 159.344 357.473H157.734V351.756H159.344C160.168 351.756 160.801 351.996 161.243 352.473C161.685 352.953 161.908 353.667 161.908 354.615C161.908 355.563 161.685 356.276 161.243 356.756Z" fill="#82C708" fill-opacity="0.25"/>
<path d="M167.654 352.817H165.292V355.112H167.654V352.817Z" fill="#82C708" fill-opacity="0.25"/>
<path d="M167.654 357.083H165.292V359.392H167.654V357.083Z" fill="#82C708" fill-opacity="0.25"/>
<path d="M171.989 355.447L172.767 355.594C173.437 355.719 173.891 355.86 174.128 356.016C174.365 356.172 174.483 356.412 174.483 356.736C174.483 357.47 173.943 357.837 172.859 357.837C172.16 357.837 171.645 357.722 171.31 357.487C170.975 357.256 170.801 356.843 170.793 356.253H168.59C168.599 357.308 168.966 358.132 169.691 358.722C170.417 359.311 171.446 359.609 172.778 359.609C174.111 359.609 175.041 359.349 175.758 358.831C176.475 358.314 176.833 357.565 176.833 356.589C176.833 355.774 176.57 355.138 176.047 354.675C175.524 354.216 174.686 353.88 173.53 353.675L172.723 353.528C172.113 353.412 171.691 353.268 171.454 353.097C171.217 352.927 171.099 352.681 171.099 352.36C171.099 351.716 171.587 351.395 172.561 351.395C173.168 351.395 173.616 351.502 173.897 351.716C174.177 351.929 174.333 352.271 174.359 352.736H176.507C176.46 351.733 176.105 350.964 175.431 350.427C174.761 349.889 173.79 349.62 172.518 349.62C171.327 349.62 170.408 349.875 169.761 350.386C169.111 350.895 168.787 351.586 168.787 352.453C168.787 354.091 169.85 355.088 171.981 355.447H171.989Z" fill="#82C708" fill-opacity="0.25"/>
<path d="M180.287 349.837H178.018V359.395H180.287V349.837Z" fill="#82C708" fill-opacity="0.25"/>
<path d="M181.978 349.837V359.392H188.622V357.366H184.247V349.837H181.978Z" fill="#82C708" fill-opacity="0.25"/>
<path d="M192.958 359.392V351.863H195.897V349.837H187.75V351.863H190.674V359.392H192.958Z" fill="#82C708" fill-opacity="0.25"/>
<path d="M200.889 349.837H196.969V359.395H200.889C202.464 359.395 203.672 358.973 204.513 358.126C205.354 357.279 205.776 356.112 205.776 354.617C205.776 353.123 205.354 351.953 204.513 351.106C203.672 350.259 202.464 349.837 200.889 349.837ZM202.747 356.756C202.305 357.236 201.672 357.473 200.848 357.473H199.238V351.756H200.848C201.672 351.756 202.305 351.996 202.747 352.473C203.189 352.953 203.412 353.667 203.412 354.615C203.412 355.563 203.189 356.276 202.747 356.756Z" fill="#82C708" fill-opacity="0.25"/>
<path d="M209.157 352.817H206.796V355.112H209.157V352.817Z" fill="#82C708" fill-opacity="0.25"/>
<path d="M209.157 357.083H206.796V359.392H209.157V357.083Z" fill="#82C708" fill-opacity="0.25"/>
<path d="M212.03 351.331C211.629 351.641 211.074 351.817 210.366 351.86L210.152 351.875V353.418H212.38V359.392H214.649V349.834H212.863C212.71 350.522 212.432 351.022 212.03 351.331Z" fill="#82C708" fill-opacity="0.25"/>
<path d="M222.097 350.346C221.47 349.88 220.684 349.646 219.736 349.646C218.652 349.646 217.759 349.949 217.051 350.559C216.351 351.178 216.004 352.002 216.004 353.031C216.004 353.898 216.291 354.638 216.863 355.245C217.426 355.863 218.224 356.169 219.253 356.169C220.282 356.169 221.083 355.817 221.603 355.109C221.557 356.12 221.389 356.851 221.094 357.302C220.799 357.753 220.351 357.979 219.753 357.979C218.877 357.979 218.366 357.626 218.224 356.918H216.143C216.276 357.776 216.666 358.444 217.311 358.918C217.955 359.392 218.779 359.629 219.782 359.629C221.054 359.629 222.019 359.181 222.681 358.288C223.343 357.392 223.675 356.109 223.675 354.435C223.675 352.476 223.152 351.111 222.106 350.34L222.097 350.346ZM220.883 354.103C220.591 354.398 220.21 354.545 219.736 354.545C219.262 354.545 218.866 354.401 218.574 354.109C218.282 353.817 218.137 353.441 218.137 352.976C218.137 352.51 218.282 352.132 218.574 351.843C218.866 351.551 219.253 351.406 219.736 351.406C220.218 351.406 220.591 351.554 220.883 351.849C221.175 352.143 221.32 352.519 221.32 352.976C221.32 353.432 221.175 353.808 220.883 354.103Z" fill="#82C708" fill-opacity="0.25"/>
<path d="M226.941 357.083H224.58V359.392H226.941V357.083Z" fill="#82C708" fill-opacity="0.25"/>
<path d="M234.687 349.837H232.418V356.548C232.418 356.915 232.314 357.198 232.109 357.401C231.904 357.603 231.62 357.701 231.262 357.701C230.904 357.701 230.623 357.6 230.415 357.401C230.21 357.198 230.106 356.915 230.106 356.548V355.944H227.944V356.548C227.944 357.496 228.242 358.245 228.837 358.791C229.432 359.337 230.247 359.609 231.288 359.609C232.328 359.609 233.198 359.323 233.8 358.75C234.389 358.178 234.684 357.444 234.684 356.548V349.837H234.687Z" fill="#82C708" fill-opacity="0.25"/>
<path d="M237.453 359.392L238.002 357.727H241.976L242.54 359.392H244.941L241.343 349.834H238.646L235.129 359.392H237.45H237.453ZM239.184 354.199C239.239 354.045 239.502 353.242 239.976 351.782C240.343 352.91 240.612 353.716 240.782 354.199L241.331 355.837H238.635L239.184 354.199Z" fill="#82C708" fill-opacity="0.25"/>
<path d="M245.788 359.392H247.95V357.392C247.95 355.675 247.933 354.201 247.895 352.976C248.173 353.522 248.67 354.389 249.386 355.58L251.722 359.392H254.164V349.834H252.002V351.834C252.002 353.554 252.019 355.034 252.057 356.277C251.736 355.632 251.239 354.756 250.566 353.646L248.23 349.834H245.788V359.392Z" fill="#82C708" fill-opacity="0.25"/>
<path d="M257.907 357.083H255.546V359.392H257.907V357.083Z" fill="#82C708" fill-opacity="0.25"/>
<path d="M259.317 349.837V359.395H261.479V356.589C261.479 355.022 261.456 353.487 261.413 351.984C261.635 352.791 261.846 353.51 262.043 354.146L263.693 359.395H265.546L267.196 354.146C267.456 353.351 267.67 352.626 267.841 351.973C267.786 353.271 267.76 354.811 267.76 356.591V359.398H269.922V349.84H266.526L265.277 353.906C265.063 354.667 264.846 355.473 264.633 356.323C264.364 355.32 264.144 354.528 263.974 353.947L262.711 349.84H259.314L259.317 349.837Z" fill="#82C708" fill-opacity="0.25"/>
<path d="M271.601 359.392H273.763V356.586C273.763 355.019 273.74 353.485 273.696 351.982C273.919 352.788 274.13 353.508 274.326 354.143L275.977 359.392H277.829L279.48 354.143C279.74 353.349 279.954 352.623 280.124 351.97C280.069 353.268 280.043 354.808 280.043 356.589V359.395H282.205V349.837H278.809L277.561 353.904C277.347 354.664 277.13 355.47 276.916 356.32C276.647 355.317 276.428 354.525 276.257 353.944L274.994 349.837H271.598V359.395L271.601 359.392Z" fill="#82C708" fill-opacity="0.25"/>
<path d="M286.393 354.534L283.078 359.392H285.656L286.448 358.199C287.127 357.152 287.535 356.516 287.671 356.294C288.119 357.002 288.529 357.635 288.905 358.199L289.697 359.392H292.327L289.026 354.493L292.127 349.834H289.59L288.853 350.947C288.532 351.438 288.159 352.031 287.74 352.719C287.006 351.565 286.636 350.973 286.627 350.947L285.902 349.834H283.283L286.396 354.531L286.393 354.534Z" fill="#82C708" fill-opacity="0.25"/>
<path d="M292.769 349.837L295.882 354.534L292.567 359.392H295.145L295.937 358.199C296.616 357.152 297.023 356.516 297.159 356.294C297.607 357.002 298.018 357.635 298.393 358.199L299.185 359.392H301.815L298.515 354.493L301.616 349.834H299.078L298.341 350.947C298.021 351.438 297.648 352.031 297.229 352.719C296.495 351.565 296.125 350.973 296.116 350.947L295.39 349.834H292.772L292.769 349.837Z" fill="#82C708" fill-opacity="0.25"/>
<path d="M304.957 349.837H302.688V359.395H304.957V349.837Z" fill="#82C708" fill-opacity="0.25"/>
<path d="M308.726 352.817H306.365V355.112H308.726V352.817Z" fill="#82C708" fill-opacity="0.25"/>
<path d="M308.726 357.083H306.365V359.392H308.726V357.083Z" fill="#82C708" fill-opacity="0.25"/>
<path d="M309.72 351.877V353.421H311.948V359.395H314.217V349.837H312.431C312.278 350.525 312 351.025 311.599 351.334C311.197 351.643 310.642 351.82 309.934 351.863L309.72 351.877Z" fill="#82C708" fill-opacity="0.25"/>
<path d="M320.07 353.086C319.041 353.086 318.258 353.438 317.72 354.146C317.764 353.117 317.943 352.38 318.249 351.938C318.559 351.496 319.021 351.273 319.639 351.273C320.472 351.273 320.96 351.626 321.102 352.334H323.168C323.044 351.476 322.668 350.808 322.041 350.334C321.414 349.86 320.605 349.623 319.611 349.623C318.322 349.623 317.339 350.068 316.657 350.958C315.978 351.849 315.636 353.135 315.636 354.817C315.636 356.794 316.165 358.164 317.22 358.924C317.848 359.381 318.634 359.609 319.582 359.609C320.665 359.609 321.559 359.305 322.267 358.696C322.955 358.086 323.301 357.265 323.301 356.224C323.301 355.366 323.018 354.626 322.455 354.01C321.891 353.392 321.093 353.083 320.064 353.083L320.07 353.086ZM320.741 357.409C320.463 357.704 320.079 357.852 319.587 357.852C319.096 357.852 318.712 357.704 318.434 357.409C318.139 357.115 317.992 356.739 317.992 356.282C317.992 355.825 318.139 355.45 318.434 355.155C318.712 354.86 319.096 354.713 319.587 354.713C320.079 354.713 320.463 354.86 320.741 355.155C321.027 355.458 321.171 355.834 321.171 356.282C321.171 356.73 321.027 357.106 320.741 357.409Z" fill="#82C708" fill-opacity="0.25"/>
<path d="M326.767 357.083H324.405V359.392H326.767V357.083Z" fill="#82C708" fill-opacity="0.25"/>
<path d="M326.767 352.817H324.405V355.112H326.767V352.817Z" fill="#82C708" fill-opacity="0.25"/>
<path d="M331.828 357.727C331.238 357.727 330.802 357.594 330.518 357.331C330.235 357.068 330.091 356.641 330.082 356.048H327.908C327.908 357.184 328.249 358.063 328.929 358.678C329.608 359.297 330.602 359.606 331.909 359.606C333.082 359.606 334.007 359.329 334.686 358.774C335.357 358.219 335.692 357.499 335.692 356.612C335.692 356.057 335.547 355.577 335.255 355.175C334.963 354.773 334.559 354.476 334.042 354.288C334.463 354.091 334.796 353.814 335.042 353.455C335.287 353.097 335.411 352.698 335.411 352.262C335.411 351.447 335.096 350.802 334.466 350.328C333.836 349.854 332.969 349.617 331.868 349.617C329.469 349.617 328.235 350.646 328.163 352.704H330.336C330.371 352.247 330.513 351.915 330.758 351.704C331.004 351.493 331.368 351.389 331.854 351.389C332.302 351.389 332.646 351.487 332.888 351.684C333.131 351.88 333.25 352.143 333.25 352.476C333.25 353.236 332.761 353.617 331.787 353.617H331.036V355.216H331.747C332.822 355.216 333.357 355.646 333.357 356.505C333.357 356.88 333.224 357.178 332.955 357.398C332.686 357.617 332.31 357.727 331.828 357.727Z" fill="#82C708" fill-opacity="0.25"/>
<path d="M336.648 357.311H341.198V359.392H343.466V357.311H344.715V355.444H343.466V349.834H340.969L336.648 355.175V357.308V357.311ZM341.267 352.077V355.447H338.542L341.267 352.077Z" fill="#82C708" fill-opacity="0.25"/>
<path d="M352.004 360.011C352.978 360.557 354.062 360.829 355.253 360.829C356.444 360.829 357.525 360.554 358.502 360.011C359.476 359.464 360.25 358.71 360.822 357.742C361.386 356.785 361.669 355.742 361.669 354.615C361.669 353.487 361.386 352.421 360.822 351.473C360.259 350.525 359.484 349.773 358.502 349.218C357.525 348.672 356.444 348.401 355.253 348.401C354.062 348.401 352.981 348.672 352.004 349.218C351.019 349.773 350.247 350.525 349.683 351.473C349.12 352.421 348.837 353.47 348.837 354.615C348.837 355.759 349.12 356.785 349.683 357.742C350.256 358.707 351.03 359.464 352.004 360.011ZM351.938 351.34C352.842 350.453 353.952 350.01 355.267 350.01C356.582 350.01 357.692 350.45 358.597 351.325C359.493 352.213 359.938 353.308 359.938 354.615C359.938 355.921 359.49 357.022 358.597 357.889C357.692 358.774 356.582 359.219 355.267 359.219C353.952 359.219 352.842 358.776 351.938 357.889C351.033 357.002 350.582 355.912 350.582 354.615C350.582 353.317 351.033 352.224 351.938 351.34Z" fill="#82C708" fill-opacity="0.25"/>
<path d="M369.467 348.843H365.453V350.588H367.479V358.641H365.453V360.386H369.467V348.843Z" fill="#82C708" fill-opacity="0.25"/>
</svg>
