<svg width="357" height="22" viewBox="0 0 357 22" fill="none" xmlns="http://www.w3.org/2000/svg">
<path d="M22.1115 19.8769L11.8267 5.3316C10.3619 3.26085 8.42959 2.12075 6.38576 2.12075H3.52996L13.0323 15.9115C14.7956 18.4678 17.138 19.8769 19.6329 19.8769H22.1131M25.7087 22H19.6329C16.7689 22 14.0231 20.3505 11.9989 17.411L0 0H6.38738C8.80192 0 11.1197 1.36861 12.8486 3.81305L25.7087 22ZM38.677 19.8769L28.3922 5.3316C26.9274 3.26085 24.9951 2.12075 22.9513 2.12075H20.0955L29.5978 15.9091C31.3612 18.4678 33.7052 19.8769 36.1985 19.8769H38.6787M42.2742 22H36.1985C33.3345 22 30.5886 20.3505 28.5645 17.411L16.5655 0H22.9529C25.3675 0 27.6852 1.36861 29.4141 3.81305L42.2742 22ZM55.2426 19.8769L44.9578 5.3316C43.493 3.26085 41.5607 2.12075 39.5169 2.12075H36.6611L46.1634 15.9115C47.9268 18.4678 50.2708 19.8769 52.764 19.8769H55.2442M58.8398 22H52.764C49.9001 22 47.1542 20.3505 45.13 17.411L33.1311 0H39.5185C41.933 0 44.2508 1.36861 45.9797 3.81305L58.8398 22ZM71.8081 19.8769L61.5233 5.3316C60.0602 3.26085 58.1279 2.12075 56.0824 2.12075H53.2266L62.729 15.9115C64.4923 18.4678 66.8347 19.8769 69.3279 19.8769H71.8081ZM75.4037 22H69.3279C66.4656 22 63.7181 20.3505 61.6939 17.411L49.695 0H56.0824C58.4969 0 60.8147 1.36861 62.5436 3.81305L75.4037 22ZM88.372 19.8769L78.0872 5.3316C76.6224 3.26085 74.6901 2.12075 72.6463 2.12075H69.7905L79.2929 15.9115C81.0562 18.4678 83.3986 19.8769 85.8919 19.8769H88.372ZM91.9676 22H85.8919C83.0295 22 80.2836 20.3505 78.2578 17.411L66.2589 0H72.6463C75.0609 0 77.3786 1.36861 79.1075 3.81305L91.9676 22ZM104.936 19.8769L94.6511 5.3316C93.188 3.26085 91.2557 2.12075 89.2102 2.12075H86.3544L95.8568 15.9115C97.6201 18.4678 99.9625 19.8769 102.457 19.8769H104.938M108.533 22H102.457C99.5934 22 96.8475 20.3505 94.8234 17.411L82.8245 0H89.2119C91.6264 0 93.9442 1.36861 95.6731 3.81305L108.533 22ZM121.501 19.8769L111.217 5.3316C109.752 3.26085 107.82 2.12075 105.776 2.12075H102.92L112.422 15.9115C114.186 18.4678 116.53 19.8769 119.023 19.8769H121.503M125.099 22H119.023C116.159 22 113.413 20.3505 111.389 17.411L99.39 0H105.777C108.192 0 110.51 1.36861 112.239 3.81305L125.099 22ZM138.067 19.8769L127.782 5.3316C126.317 3.26085 124.385 2.12075 122.341 2.12075H119.486L128.988 15.9115C130.751 18.4678 133.095 19.8769 135.589 19.8769H138.069M141.664 22H135.589C132.725 22 129.979 20.3505 127.954 17.411L115.956 0H122.343C124.757 0 127.075 1.36861 128.804 3.81305L141.664 22ZM154.633 19.8769L144.348 5.3316C142.885 3.26085 140.952 2.12075 138.907 2.12075H136.051L145.553 15.9115C147.317 18.4678 149.659 19.8769 152.152 19.8769H154.633ZM158.228 22H152.152C149.29 22 146.543 20.3505 144.518 17.411L132.519 0H138.907C141.321 0 143.639 1.36861 145.368 3.81305L158.228 22ZM171.196 19.8769L160.912 5.3316C159.447 3.26085 157.516 2.12075 155.471 2.12075H152.615L162.117 15.9115C163.881 18.4678 166.223 19.8769 168.716 19.8769H171.196ZM174.792 22H168.716C165.852 22 163.108 20.3505 161.082 17.411L149.083 0H155.471C157.885 0 160.203 1.36861 161.932 3.81305L174.792 22ZM187.76 19.8769L177.476 5.3316C176.012 3.26085 174.08 2.12075 172.035 2.12075H169.179L178.681 15.9115C180.445 18.4678 182.787 19.8769 185.282 19.8769H187.762M191.358 22H185.282C182.418 22 179.672 20.3505 177.648 17.411L165.649 0H172.036C174.451 0 176.769 1.36861 178.498 3.81305L191.358 22ZM204.326 19.8769L194.041 5.3316C192.576 3.26085 190.644 2.12075 188.6 2.12075H185.744L195.247 15.9115C197.01 18.4678 199.354 19.8769 201.846 19.8769H204.326ZM207.922 22H201.846C198.983 22 196.238 20.3505 194.212 17.411L182.213 0H188.6C191.015 0 193.333 1.36861 195.061 3.81305L207.922 22ZM220.89 19.8769L210.605 5.3316C209.14 3.26085 207.208 2.12075 205.164 2.12075H202.308L211.811 15.9115C213.574 18.4678 215.918 19.8769 218.411 19.8769H220.891M224.487 22H218.411C215.547 22 212.801 20.3505 210.777 17.411L198.778 0H205.166C207.58 0 209.898 1.36861 211.627 3.81305L224.487 22ZM237.455 19.8769L227.171 5.3316C225.706 3.26085 223.775 2.12075 221.73 2.12075H218.874L228.376 15.9115C230.14 18.4678 232.482 19.8769 234.975 19.8769H237.455ZM241.051 22H234.975C232.111 22 229.365 20.3505 227.341 17.411L215.342 0H221.73C224.144 0 226.462 1.36861 228.191 3.81305L241.051 22ZM254.019 19.8769L243.735 5.3316C242.27 3.26085 240.339 2.12075 238.294 2.12075H235.438L244.94 15.9115C246.703 18.4678 249.046 19.8769 251.539 19.8769H254.019ZM257.615 22H251.539C248.675 22 245.929 20.3505 243.905 17.411L231.906 0H238.294C240.708 0 243.026 1.36861 244.755 3.81305L257.615 22ZM270.583 19.8769L260.298 5.3316C258.835 3.26085 256.903 2.12075 254.858 2.12075H252.002L261.504 15.9115C263.267 18.4678 265.61 19.8769 268.103 19.8769H270.583ZM274.179 22H268.103C265.241 22 262.493 20.3505 260.469 17.411L248.47 0H254.858C257.272 0 259.59 1.36861 261.319 3.81305L274.179 22ZM287.147 19.8769L276.862 5.3316C275.398 3.26085 273.465 2.12075 271.421 2.12075H268.566L278.068 15.9115C279.831 18.4678 282.175 19.8769 284.667 19.8769H287.147ZM290.743 22H284.667C281.805 22 279.059 20.3505 277.033 17.411L265.034 0H271.421C273.834 0 276.154 1.36861 277.883 3.81305L290.743 22ZM303.711 19.8769L293.426 5.3316C291.961 3.26085 290.029 2.12075 287.985 2.12075H285.13L294.632 15.9115C296.395 18.4678 298.739 19.8769 301.233 19.8769H303.713M307.308 22H301.233C298.369 22 295.623 20.3505 293.598 17.411L281.6 0H287.987C290.402 0 292.719 1.36861 294.448 3.81305L307.308 22ZM320.277 19.8769L309.992 5.3316C308.527 3.26085 306.596 2.12075 304.551 2.12075H301.695L311.197 15.9115C312.961 18.4678 315.303 19.8769 317.796 19.8769H320.277ZM323.872 22H317.796C314.932 22 312.187 20.3505 310.162 17.411L298.164 0H304.551C306.965 0 309.283 1.36861 311.012 3.81305L323.872 22ZM336.84 19.8769L326.556 5.3316C325.091 3.26085 323.16 2.12075 321.115 2.12075H318.259L327.761 15.9115C329.525 18.4678 331.867 19.8769 334.36 19.8769H336.84ZM340.436 22H334.36C331.496 22 328.75 20.3505 326.726 17.411L314.727 0H321.115C323.529 0 325.847 1.36861 327.576 3.81305L340.436 22ZM353.404 19.8769L343.12 5.3316C341.655 3.26085 339.723 2.12075 337.679 2.12075H334.823L344.325 15.9115C346.089 18.4678 348.431 19.8769 350.924 19.8769H353.404ZM357 22H350.924C348.062 22 345.314 20.3505 343.29 17.411L331.291 0H337.679C340.093 0 342.411 1.36861 344.14 3.81305L357 22Z" fill="#82C708" fill-opacity="0.25"/>
</svg>
