<svg width="285" height="42" viewBox="0 0 285 42" fill="none" xmlns="http://www.w3.org/2000/svg">
<path d="M65.51 15.7131C65.95 15.4571 66.22 14.9944 66.22 14.4923V13.1337C66.22 12.73 65.89 12.3953 65.47 12.3953H61.55C61.14 12.3953 60.8 12.7202 60.8 13.1337V16.5204C60.8 16.9241 61.13 17.2588 61.55 17.2588H62.46C62.72 17.2588 62.97 17.1899 63.19 17.0619L65.5 15.7131H65.51Z" fill="#82C708" fill-opacity="0.25"/>
<path d="M72.23 17.2588C72.64 17.2588 72.98 16.9339 72.98 16.5204V13.1337C72.98 12.73 72.65 12.3953 72.23 12.3953H68.31C67.9 12.3953 67.56 12.7202 67.56 13.1337V14.4923C67.56 14.9944 67.83 15.4571 68.27 15.7131L70.58 17.0619C70.8 17.1899 71.06 17.2588 71.31 17.2588H72.22H72.23Z" fill="#82C708" fill-opacity="0.25"/>
<path d="M96.25 17.2588C96.51 17.2588 96.76 17.1899 96.98 17.0619L99.29 15.7131C99.73 15.4571 100 14.9944 100 14.4923V13.1337C100 12.73 99.67 12.3953 99.25 12.3953H95.33C94.92 12.3953 94.58 12.7202 94.58 13.1337V16.5204C94.58 16.9241 94.91 17.2588 95.33 17.2588H96.24H96.25Z" fill="#82C708" fill-opacity="0.25"/>
<path d="M106.01 17.2588C106.42 17.2588 106.76 16.9339 106.76 16.5204V13.1337C106.76 12.73 106.43 12.3953 106.01 12.3953H102.09C101.68 12.3953 101.34 12.7202 101.34 13.1337V14.4923C101.34 14.9944 101.61 15.4571 102.05 15.7131L104.36 17.0619C104.58 17.1899 104.84 17.2588 105.09 17.2588H106H106.01Z" fill="#82C708" fill-opacity="0.25"/>
<path d="M106.05 21.8959C106.49 21.6399 106.76 21.1772 106.76 20.6751V19.3165C106.76 18.9128 106.43 18.5781 106.01 18.5781H102.09C101.68 18.5781 101.34 18.903 101.34 19.3165V22.7032C101.34 23.1069 101.67 23.4416 102.09 23.4416H103C103.26 23.4416 103.51 23.3727 103.73 23.2447L106.04 21.8959H106.05Z" fill="#82C708" fill-opacity="0.25"/>
<path d="M100 22.7032V21.3446C100 20.8425 99.73 20.3797 99.29 20.1238L96.98 18.775C96.76 18.647 96.5 18.5781 96.25 18.5781H95.34C94.93 18.5781 94.59 18.903 94.59 19.3165V22.7032C94.59 23.1069 94.92 23.4416 95.34 23.4416H99.26C99.67 23.4416 100.01 23.1167 100.01 22.7032H100Z" fill="#82C708" fill-opacity="0.25"/>
<path d="M101.35 25.4501V28.8368C101.35 29.2405 101.68 29.5752 102.1 29.5752H106.02C106.43 29.5752 106.77 29.2503 106.77 28.8368V27.4782C106.77 26.9761 106.5 26.5134 106.06 26.2574L103.75 24.9086C103.53 24.7806 103.27 24.7117 103.02 24.7117H102.11C101.7 24.7117 101.36 25.0366 101.36 25.4501H101.35Z" fill="#82C708" fill-opacity="0.25"/>
<path d="M75.03 20.0647C74.59 20.3207 74.32 20.7835 74.32 21.2856V22.6442C74.32 23.0478 74.65 23.3826 75.07 23.3826H78.99C79.4 23.3826 79.74 23.0577 79.74 22.6442V19.2574C79.74 18.8538 79.41 18.519 78.99 18.519H78.08C77.82 18.519 77.57 18.5879 77.35 18.7159L75.04 20.0647H75.03Z" fill="#82C708" fill-opacity="0.25"/>
<path d="M68.27 26.3066C67.83 26.5626 67.56 27.0253 67.56 27.5274V28.8861C67.56 29.2898 67.89 29.6245 68.31 29.6245H72.23C72.64 29.6245 72.98 29.2996 72.98 28.8861V25.4993C72.98 25.0957 72.65 24.7609 72.23 24.7609H71.32C71.06 24.7609 70.81 24.8298 70.59 24.9578L68.28 26.3066H68.27Z" fill="#82C708" fill-opacity="0.25"/>
<path d="M81.83 18.519C81.42 18.519 81.08 18.8439 81.08 19.2574V20.6161C81.08 21.1182 81.35 21.5809 81.79 21.8369L84.1 23.1857C84.32 23.3137 84.58 23.3826 84.83 23.3826H85.74C86.15 23.3826 86.49 23.0577 86.49 22.6442V19.2574C86.49 18.8538 86.16 18.519 85.74 18.519H81.82H81.83Z" fill="#82C708" fill-opacity="0.25"/>
<path d="M66.22 28.9255V25.5387C66.22 25.135 65.89 24.8003 65.47 24.8003H61.55C61.14 24.8003 60.8 25.1252 60.8 25.5387V26.8973C60.8 27.3995 61.07 27.8622 61.51 28.1182L63.82 29.467C64.04 29.595 64.3 29.6639 64.55 29.6639H65.46C65.87 29.6639 66.21 29.339 66.21 28.9255H66.22Z" fill="#82C708" fill-opacity="0.25"/>
<path d="M66.22 35.1378V33.7792C66.22 33.2771 65.95 32.8143 65.51 32.5584L63.2 31.2096C62.98 31.0816 62.72 31.0126 62.47 31.0126H61.56C61.15 31.0126 60.81 31.3375 60.81 31.751V35.1378C60.81 35.5415 61.14 35.8762 61.56 35.8762H65.48C65.89 35.8762 66.23 35.5513 66.23 35.1378H66.22Z" fill="#82C708" fill-opacity="0.25"/>
<path d="M66.22 22.7032V19.3165C66.22 18.9128 65.89 18.5781 65.47 18.5781H61.55C61.14 18.5781 60.8 18.903 60.8 19.3165V20.6751C60.8 21.1772 61.07 21.6399 61.51 21.8959L63.82 23.2447C64.04 23.3727 64.3 23.4416 64.55 23.4416H65.46C65.87 23.4416 66.21 23.1167 66.21 22.7032H66.22Z" fill="#82C708" fill-opacity="0.25"/>
<path d="M39.09 22.7032V19.3165C39.09 18.9128 38.76 18.5781 38.34 18.5781H34.42C34.01 18.5781 33.67 18.903 33.67 19.3165V20.6751C33.67 21.1772 33.94 21.6399 34.38 21.8959L36.69 23.2447C36.91 23.3727 37.17 23.4416 37.42 23.4416H38.33C38.74 23.4416 39.08 23.1167 39.08 22.7032H39.09Z" fill="#82C708" fill-opacity="0.25"/>
<path d="M54.76 26.2771C54.32 26.533 54.05 26.9958 54.05 27.4979V28.8566C54.05 29.2602 54.38 29.595 54.8 29.595H58.72C59.13 29.595 59.47 29.2701 59.47 28.8566V25.4698C59.47 25.0661 59.14 24.7314 58.72 24.7314H57.81C57.55 24.7314 57.3 24.8003 57.08 24.9283L54.77 26.2771H54.76Z" fill="#82C708" fill-opacity="0.25"/>
<path d="M45.95 28.9255V25.5387C45.95 25.135 45.62 24.8003 45.2 24.8003H41.28C40.87 24.8003 40.53 25.1252 40.53 25.5387V26.8973C40.53 27.3995 40.8 27.8622 41.24 28.1182L43.55 29.467C43.77 29.595 44.03 29.6639 44.28 29.6639H45.19C45.6 29.6639 45.94 29.339 45.94 28.9255H45.95Z" fill="#82C708" fill-opacity="0.25"/>
<path d="M85.74 29.6245C86.15 29.6245 86.49 29.2996 86.49 28.8861V25.4993C86.49 25.0957 86.16 24.7609 85.74 24.7609H81.82C81.41 24.7609 81.07 25.0858 81.07 25.4993V26.858C81.07 27.3601 81.34 27.8228 81.78 28.0788L84.09 29.4276C84.31 29.5556 84.57 29.6245 84.82 29.6245H85.73H85.74Z" fill="#82C708" fill-opacity="0.25"/>
<path d="M93.25 22.7032V21.3446C93.25 20.8425 92.98 20.3797 92.54 20.1238L90.23 18.775C90.01 18.647 89.75 18.5781 89.5 18.5781H88.59C88.18 18.5781 87.84 18.903 87.84 19.3165V22.7032C87.84 23.1069 88.17 23.4416 88.59 23.4416H92.51C92.92 23.4416 93.26 23.1167 93.26 22.7032H93.25Z" fill="#82C708" fill-opacity="0.25"/>
<path d="M112.77 17.2588C113.18 17.2588 113.52 16.9339 113.52 16.5204V13.1337C113.52 12.73 113.19 12.3953 112.77 12.3953H108.85C108.44 12.3953 108.1 12.7202 108.1 13.1337V14.4923C108.1 14.9944 108.37 15.4571 108.81 15.7131L111.12 17.0619C111.34 17.1899 111.6 17.2588 111.85 17.2588H112.76H112.77Z" fill="#82C708" fill-opacity="0.25"/>
<path d="M120.27 16.5992V15.2405C120.27 14.7384 120 14.2757 119.56 14.0197L117.25 12.6709C117.03 12.5429 116.77 12.474 116.52 12.474H115.61C115.2 12.474 114.86 12.7989 114.86 13.2124V16.5992C114.86 17.0028 115.19 17.3376 115.61 17.3376H119.53C119.94 17.3376 120.28 17.0127 120.28 16.5992H120.27Z" fill="#82C708" fill-opacity="0.25"/>
<path d="M45.95 16.4909V13.1041C45.95 12.7005 45.62 12.3657 45.2 12.3657H44.29C44.03 12.3657 43.78 12.4346 43.56 12.5626L41.25 13.9114C40.81 14.1674 40.54 14.6301 40.54 15.1322V16.4909C40.54 16.8945 40.87 17.2293 41.29 17.2293H45.21C45.62 17.2293 45.96 16.9044 45.96 16.4909H45.95Z" fill="#82C708" fill-opacity="0.25"/>
<path d="M45.95 22.7032V19.3165C45.95 18.9128 45.62 18.5781 45.2 18.5781H41.28C40.87 18.5781 40.53 18.903 40.53 19.3165V20.6751C40.53 21.1772 40.8 21.6399 41.24 21.8959L43.55 23.2447C43.77 23.3727 44.03 23.4416 44.28 23.4416H45.19C45.6 23.4416 45.94 23.1167 45.94 22.7032H45.95Z" fill="#82C708" fill-opacity="0.25"/>
<path d="M59.46 22.7032V19.3165C59.46 18.9128 59.13 18.5781 58.71 18.5781H54.79C54.38 18.5781 54.04 18.903 54.04 19.3165V20.6751C54.04 21.1772 54.31 21.6399 54.75 21.8959L57.06 23.2447C57.28 23.3727 57.54 23.4416 57.79 23.4416H58.7C59.11 23.4416 59.45 23.1167 59.45 22.7032H59.46Z" fill="#82C708" fill-opacity="0.25"/>
<path d="M31.73 21.8959C32.17 21.6399 32.44 21.1772 32.44 20.6751V19.3165C32.44 18.9128 32.11 18.5781 31.69 18.5781H27.77C27.36 18.5781 27.02 18.903 27.02 19.3165V22.7032C27.02 23.1069 27.35 23.4416 27.77 23.4416H28.68C28.94 23.4416 29.19 23.3727 29.41 23.2447L31.72 21.8959H31.73Z" fill="#82C708" fill-opacity="0.25"/>
<path d="M24.98 15.7525C25.42 15.4965 25.69 15.0338 25.69 14.5317V13.173C25.69 12.7694 25.36 12.4346 24.94 12.4346H21.02C20.61 12.4346 20.27 12.7595 20.27 13.173V16.5598C20.27 16.9635 20.6 17.2982 21.02 17.2982H21.93C22.19 17.2982 22.44 17.2293 22.66 17.1013L24.97 15.7525H24.98Z" fill="#82C708" fill-opacity="0.25"/>
<path d="M11.46 21.8467C11.9 21.5907 12.17 21.128 12.17 20.6259V19.2672C12.17 18.8635 11.84 18.5288 11.42 18.5288H7.5C7.09 18.5288 6.75 18.8537 6.75 19.2672V22.654C6.75 23.0576 7.08 23.3924 7.5 23.3924H8.41C8.67 23.3924 8.92 23.3235 9.14 23.1955L11.45 21.8467H11.46Z" fill="#82C708" fill-opacity="0.25"/>
<path d="M51.96 17.2293C52.37 17.2293 52.71 16.9044 52.71 16.4909V13.1041C52.71 12.7005 52.38 12.3657 51.96 12.3657H48.04C47.63 12.3657 47.29 12.6906 47.29 13.1041V14.4627C47.29 14.9649 47.56 15.4276 48 15.6836L50.31 17.0324C50.53 17.1604 50.79 17.2293 51.04 17.2293H51.95H51.96Z" fill="#82C708" fill-opacity="0.25"/>
<path d="M59.46 16.5598V15.2012C59.46 14.699 59.19 14.2363 58.75 13.9803L56.44 12.6315C56.22 12.5036 55.96 12.4346 55.71 12.4346H54.8C54.39 12.4346 54.05 12.7595 54.05 13.173V16.5598C54.05 16.9635 54.38 17.2982 54.8 17.2982H58.72C59.13 17.2982 59.47 16.9733 59.47 16.5598H59.46Z" fill="#82C708" fill-opacity="0.25"/>
<path d="M115.61 24.7117C115.2 24.7117 114.86 25.0366 114.86 25.4501V28.8368C114.86 29.2405 115.19 29.5752 115.61 29.5752H116.52C116.78 29.5752 117.03 29.5063 117.25 29.3784L119.56 28.0295C120 27.7735 120.27 27.3108 120.27 26.8087V25.4501C120.27 25.0464 119.94 24.7117 119.52 24.7117H115.6H115.61Z" fill="#82C708" fill-opacity="0.25"/>
<path d="M122.36 24.7117C121.95 24.7117 121.61 25.0366 121.61 25.4501V26.8087C121.61 27.3108 121.88 27.7735 122.32 28.0295L124.63 29.3784C124.85 29.5063 125.11 29.5752 125.36 29.5752H126.27C126.68 29.5752 127.02 29.2503 127.02 28.8368V25.4501C127.02 25.0464 126.69 24.7117 126.27 24.7117H122.35H122.36Z" fill="#82C708" fill-opacity="0.25"/>
<path d="M129.08 32.3714C128.64 32.6273 128.37 33.0901 128.37 33.5922V34.9508C128.37 35.3545 128.7 35.6892 129.12 35.6892H133.04C133.45 35.6892 133.79 35.3643 133.79 34.9508V31.5641C133.79 31.1604 133.46 30.8257 133.04 30.8257H132.13C131.87 30.8257 131.62 30.8946 131.4 31.0226L129.09 32.3714H129.08Z" fill="#82C708" fill-opacity="0.25"/>
<path d="M125.37 37.0774C125.11 37.0774 124.86 37.1463 124.64 37.2743L122.33 38.6231C121.89 38.8791 121.62 39.3418 121.62 39.8439V41.2026C121.62 41.6062 121.95 41.941 122.37 41.941H126.29C126.7 41.941 127.04 41.6161 127.04 41.2026V37.8158C127.04 37.4121 126.71 37.0774 126.29 37.0774H125.38H125.37Z" fill="#82C708" fill-opacity="0.25"/>
<path d="M114.86 37.8453V39.2039C114.86 39.706 115.13 40.1688 115.57 40.4248L117.88 41.7736C118.1 41.9015 118.36 41.9704 118.61 41.9704H119.52C119.93 41.9704 120.27 41.6456 120.27 41.2321V37.8453C120.27 37.4416 119.94 37.1069 119.52 37.1069H115.6C115.19 37.1069 114.85 37.4318 114.85 37.8453H114.86Z" fill="#82C708" fill-opacity="0.25"/>
<path d="M119.53 35.7482C119.94 35.7482 120.28 35.4233 120.28 35.0098V31.623C120.28 31.2194 119.95 30.8846 119.53 30.8846H115.61C115.2 30.8846 114.86 31.2095 114.86 31.623V32.9817C114.86 33.4838 115.13 33.9465 115.57 34.2025L117.88 35.5513C118.1 35.6793 118.36 35.7482 118.61 35.7482H119.52H119.53Z" fill="#82C708" fill-opacity="0.25"/>
<path d="M94.59 31.6329V35.0197C94.59 35.4234 94.92 35.7581 95.34 35.7581H99.26C99.67 35.7581 100.01 35.4332 100.01 35.0197V33.6611C100.01 33.1589 99.74 32.6962 99.3 32.4402L96.99 31.0914C96.77 30.9635 96.51 30.8945 96.26 30.8945H95.35C94.94 30.8945 94.6 31.2194 94.6 31.6329H94.59Z" fill="#82C708" fill-opacity="0.25"/>
<path d="M108.81 38.5837C108.37 38.8396 108.1 39.3024 108.1 39.8045V41.1631C108.1 41.5668 108.43 41.9015 108.85 41.9015H112.77C113.18 41.9015 113.52 41.5766 113.52 41.1631V37.7764C113.52 37.3727 113.19 37.038 112.77 37.038H111.86C111.6 37.038 111.35 37.1069 111.13 37.2349L108.82 38.5837H108.81Z" fill="#82C708" fill-opacity="0.25"/>
<path d="M113.51 35.0197V31.6329C113.51 31.2293 113.18 30.8945 112.76 30.8945H108.84C108.43 30.8945 108.09 31.2194 108.09 31.6329V32.9916C108.09 33.4937 108.36 33.9564 108.8 34.2124L111.11 35.5612C111.33 35.6892 111.59 35.7581 111.84 35.7581H112.75C113.16 35.7581 113.5 35.4332 113.5 35.0197H113.51Z" fill="#82C708" fill-opacity="0.25"/>
<path d="M108.11 25.4894V28.8762C108.11 29.2799 108.44 29.6146 108.86 29.6146H112.78C113.19 29.6146 113.53 29.2897 113.53 28.8762V27.5176C113.53 27.0155 113.26 26.5527 112.82 26.2968L110.51 24.948C110.29 24.82 110.03 24.751 109.78 24.751H108.87C108.46 24.751 108.12 25.0759 108.12 25.4894H108.11Z" fill="#82C708" fill-opacity="0.25"/>
<path d="M85.74 41.9803C86.15 41.9803 86.49 41.6554 86.49 41.2419V37.8552C86.49 37.4515 86.16 37.1168 85.74 37.1168H84.83C84.57 37.1168 84.32 37.1857 84.1 37.3137L81.79 38.6625C81.35 38.9185 81.08 39.3812 81.08 39.8833V41.2419C81.08 41.6456 81.41 41.9803 81.83 41.9803H85.75H85.74Z" fill="#82C708" fill-opacity="0.25"/>
<path d="M79.73 41.2419V39.8833C79.73 39.3812 79.46 38.9185 79.02 38.6625L76.71 37.3137C76.49 37.1857 76.23 37.1168 75.98 37.1168H75.07C74.66 37.1168 74.32 37.4417 74.32 37.8552V41.2419C74.32 41.6456 74.65 41.9803 75.07 41.9803H78.99C79.4 41.9803 79.74 41.6554 79.74 41.2419H79.73Z" fill="#82C708" fill-opacity="0.25"/>
<path d="M74.32 31.6822V35.069C74.32 35.4726 74.65 35.8074 75.07 35.8074H78.99C79.4 35.8074 79.74 35.4825 79.74 35.069V33.7103C79.74 33.2082 79.47 32.7455 79.03 32.4895L76.72 31.1407C76.5 31.0127 76.24 30.9438 75.99 30.9438H75.08C74.67 30.9438 74.33 31.2687 74.33 31.6822H74.32Z" fill="#82C708" fill-opacity="0.25"/>
<path d="M93.25 35.1378V31.751C93.25 31.3474 92.92 31.0126 92.5 31.0126H88.58C88.17 31.0126 87.83 31.3375 87.83 31.751V33.1097C87.83 33.6118 88.1 34.0745 88.54 34.3305L90.85 35.6793C91.07 35.8073 91.33 35.8762 91.58 35.8762H92.49C92.9 35.8762 93.24 35.5513 93.24 35.1378H93.25Z" fill="#82C708" fill-opacity="0.25"/>
<path d="M5.41 28.8566V25.4698C5.41 25.0661 5.08 24.7314 4.66 24.7314H3.75C3.49 24.7314 3.24 24.8003 3.02 24.9283L0.71 26.2771C0.27 26.533 0 26.9958 0 27.4979V28.8566C0 29.2602 0.33 29.595 0.75 29.595H4.67C5.08 29.595 5.42 29.2701 5.42 28.8566H5.41Z" fill="#82C708" fill-opacity="0.25"/>
<path d="M18.93 22.6737V21.315C18.93 20.8129 18.66 20.3502 18.22 20.0942L15.91 18.7454C15.69 18.6174 15.43 18.5485 15.18 18.5485H14.27C13.86 18.5485 13.52 18.8734 13.52 19.2869V22.6737C13.52 23.0774 13.85 23.4121 14.27 23.4121H18.19C18.6 23.4121 18.94 23.0872 18.94 22.6737H18.93Z" fill="#82C708" fill-opacity="0.25"/>
<path d="M18.93 16.5598V15.2012C18.93 14.699 18.66 14.2363 18.22 13.9803L15.91 12.6315C15.69 12.5036 15.43 12.4346 15.18 12.4346H14.27C13.86 12.4346 13.52 12.7595 13.52 13.173V16.5598C13.52 16.9635 13.85 17.2982 14.27 17.2982H18.19C18.6 17.2982 18.94 16.9733 18.94 16.5598H18.93Z" fill="#82C708" fill-opacity="0.25"/>
<path d="M24.98 28.0788C25.42 27.8228 25.69 27.3601 25.69 26.858V25.4993C25.69 25.0957 25.36 24.7609 24.94 24.7609H21.02C20.61 24.7609 20.27 25.0858 20.27 25.4993V28.8861C20.27 29.2898 20.6 29.6245 21.02 29.6245H21.93C22.19 29.6245 22.44 29.5556 22.66 29.4276L24.97 28.0788H24.98Z" fill="#82C708" fill-opacity="0.25"/>
<path d="M25.68 22.6737V21.315C25.68 20.8129 25.41 20.3502 24.97 20.0942L22.66 18.7454C22.44 18.6174 22.18 18.5485 21.93 18.5485H21.02C20.61 18.5485 20.27 18.8734 20.27 19.2869V22.6737C20.27 23.0774 20.6 23.4121 21.02 23.4121H24.94C25.35 23.4121 25.69 23.0872 25.69 22.6737H25.68Z" fill="#82C708" fill-opacity="0.25"/>
<path d="M18.93 28.8861V27.5274C18.93 27.0253 18.66 26.5626 18.22 26.3066L15.91 24.9578C15.69 24.8298 15.43 24.7609 15.18 24.7609H14.27C13.86 24.7609 13.52 25.0858 13.52 25.4993V28.8861C13.52 29.2898 13.85 29.6245 14.27 29.6245H18.19C18.6 29.6245 18.94 29.2996 18.94 28.8861H18.93Z" fill="#82C708" fill-opacity="0.25"/>
<path d="M6.76 25.4304V26.7891C6.76 27.2912 7.03 27.7539 7.47 28.0099L9.78 29.3587C10 29.4867 10.26 29.5556 10.51 29.5556H11.42C11.83 29.5556 12.17 29.2307 12.17 28.8172V25.4304C12.17 25.0268 11.84 24.692 11.42 24.692H7.5C7.09 24.692 6.75 25.0169 6.75 25.4304H6.76Z" fill="#82C708" fill-opacity="0.25"/>
<path d="M12.17 16.4909V13.1041C12.17 12.7005 11.84 12.3657 11.42 12.3657H7.5C7.09 12.3657 6.75 12.6906 6.75 13.1041V14.4627C6.75 14.9649 7.02 15.4276 7.46 15.6836L9.77 17.0324C9.99 17.1604 10.25 17.2293 10.5 17.2293H11.41C11.82 17.2293 12.16 16.9044 12.16 16.4909H12.17Z" fill="#82C708" fill-opacity="0.25"/>
<path d="M5.41 16.4909V13.1041C5.41 12.7005 5.08 12.3657 4.66 12.3657H0.75C0.34 12.3657 0 12.6906 0 13.1041V14.4627C0 14.9649 0.27 15.4276 0.71 15.6836L3.02 17.0324C3.24 17.1604 3.5 17.2293 3.75 17.2293H4.66C5.07 17.2293 5.41 16.9044 5.41 16.4909Z" fill="#82C708" fill-opacity="0.25"/>
<path d="M11.46 9.43181C11.9 9.17583 12.17 8.71311 12.17 8.211V6.85235C12.17 6.44869 11.84 6.11395 11.42 6.11395H7.5C7.09 6.11395 6.75 6.43885 6.75 6.85235V10.2391C6.75 10.6428 7.08 10.9775 7.5 10.9775H8.41C8.67 10.9775 8.92 10.9086 9.14 10.7806L11.45 9.43181H11.46Z" fill="#82C708" fill-opacity="0.25"/>
<path d="M5.41 10.2391V6.85235C5.41 6.44869 5.08 6.11395 4.66 6.11395H3.75C3.49 6.11395 3.24 6.18285 3.02 6.31084L0.71 7.65967C0.27 7.91565 0 8.37837 0 8.88048V10.2391C0 10.6428 0.33 10.9775 0.75 10.9775H4.67C5.08 10.9775 5.42 10.6526 5.42 10.2391H5.41Z" fill="#82C708" fill-opacity="0.25"/>
<path d="M18.93 4.13519V0.748406C18.93 0.34475 18.6 0.0100098 18.18 0.0100098H14.26C13.85 0.0100098 13.51 0.334904 13.51 0.748406V2.10706C13.51 2.60917 13.78 3.07189 14.22 3.32787L16.53 4.67667C16.75 4.80466 17.01 4.87358 17.26 4.87358H18.17C18.58 4.87358 18.92 4.54869 18.92 4.13519H18.93Z" fill="#82C708" fill-opacity="0.25"/>
<path d="M18.93 10.2391V8.88048C18.93 8.37837 18.66 7.91565 18.22 7.65967L15.91 6.31084C15.69 6.18285 15.43 6.11395 15.18 6.11395H14.27C13.86 6.11395 13.52 6.43885 13.52 6.85235V10.2391C13.52 10.6428 13.85 10.9775 14.27 10.9775H18.19C18.6 10.9775 18.94 10.6526 18.94 10.2391H18.93Z" fill="#82C708" fill-opacity="0.25"/>
<path d="M25.68 4.13519V0.748406C25.68 0.34475 25.35 0.0100098 24.93 0.0100098H21.01C20.6 0.0100098 20.26 0.334904 20.26 0.748406V2.10706C20.26 2.60917 20.53 3.07189 20.97 3.32787L23.28 4.67667C23.5 4.80466 23.76 4.87358 24.01 4.87358H24.92C25.33 4.87358 25.67 4.54869 25.67 4.13519H25.68Z" fill="#82C708" fill-opacity="0.25"/>
<path d="M25.68 10.308V8.94938C25.68 8.44728 25.41 7.98453 24.97 7.72855L22.66 6.37975C22.44 6.25176 22.18 6.18286 21.93 6.18286H21.02C20.61 6.18286 20.27 6.50776 20.27 6.92126V10.308C20.27 10.7117 20.6 11.0464 21.02 11.0464H24.94C25.35 11.0464 25.69 10.7215 25.69 10.308H25.68Z" fill="#82C708" fill-opacity="0.25"/>
<path d="M85.74 17.2588C86.15 17.2588 86.49 16.9339 86.49 16.5204V13.1337C86.49 12.73 86.16 12.3953 85.74 12.3953H81.82C81.41 12.3953 81.07 12.7202 81.07 13.1337V14.4923C81.07 14.9944 81.34 15.4571 81.78 15.7131L84.09 17.0619C84.31 17.1899 84.57 17.2588 84.82 17.2588H85.73H85.74Z" fill="#82C708" fill-opacity="0.25"/>
<path d="M126.96 11.0464C127.37 11.0464 127.71 10.7215 127.71 10.308V6.92126C127.71 6.5176 127.38 6.18286 126.96 6.18286H126.05C125.79 6.18286 125.54 6.25176 125.32 6.37975L123.01 7.72855C122.57 7.98453 122.3 8.44728 122.3 8.94938V10.308C122.3 10.7117 122.63 11.0464 123.05 11.0464H126.97H126.96Z" fill="#82C708" fill-opacity="0.25"/>
<path d="M120.2 11.0464C120.61 11.0464 120.95 10.7215 120.95 10.308V8.94938C120.95 8.44728 120.68 7.98453 120.24 7.72855L117.93 6.37975C117.71 6.25176 117.45 6.18286 117.2 6.18286H116.29C115.88 6.18286 115.54 6.50776 115.54 6.92126V10.308C115.54 10.7117 115.87 11.0464 116.29 11.0464H120.21H120.2Z" fill="#82C708" fill-opacity="0.25"/>
<path d="M93.17 11.0464C93.58 11.0464 93.92 10.7215 93.92 10.308V6.92126C93.92 6.5176 93.59 6.18286 93.17 6.18286H92.26C92 6.18286 91.75 6.25176 91.53 6.37975L89.22 7.72855C88.78 7.98453 88.51 8.44728 88.51 8.94938V10.308C88.51 10.7117 88.84 11.0464 89.26 11.0464H93.18H93.17Z" fill="#82C708" fill-opacity="0.25"/>
<path d="M86.42 11.0464C86.83 11.0464 87.17 10.7215 87.17 10.308V8.94938C87.17 8.44728 86.9 7.98453 86.46 7.72855L84.15 6.37975C83.93 6.25176 83.67 6.18286 83.42 6.18286H82.51C82.1 6.18286 81.76 6.50776 81.76 6.92126V10.308C81.76 10.7117 82.09 11.0464 82.51 11.0464H86.43H86.42Z" fill="#82C708" fill-opacity="0.25"/>
<path d="M87.16 4.13519V0.748406C87.16 0.34475 86.83 0.0100098 86.41 0.0100098H85.5C85.24 0.0100098 84.99 0.0789388 84.77 0.206928L82.46 1.55573C82.02 1.8117 81.75 2.27442 81.75 2.77653V4.13519C81.75 4.53884 82.08 4.87358 82.5 4.87358H86.42C86.83 4.87358 87.17 4.54869 87.17 4.13519H87.16Z" fill="#82C708" fill-opacity="0.25"/>
<path d="M93.92 4.13519V0.748406C93.92 0.34475 93.59 0.0100098 93.17 0.0100098H89.25C88.84 0.0100098 88.5 0.334904 88.5 0.748406V2.10706C88.5 2.60917 88.77 3.07189 89.21 3.32787L91.52 4.67667C91.74 4.80466 92 4.87358 92.25 4.87358H93.16C93.57 4.87358 93.91 4.54869 93.91 4.13519H93.92Z" fill="#82C708" fill-opacity="0.25"/>
<path d="M113.48 3.38677C113.92 3.13079 114.19 2.66807 114.19 2.16596V0.807305C114.19 0.403648 113.86 0.0689087 113.44 0.0689087H109.52C109.11 0.0689087 108.77 0.393803 108.77 0.807305V4.19409C108.77 4.59774 109.1 4.93248 109.52 4.93248H110.43C110.69 4.93248 110.94 4.86358 111.16 4.7356L113.47 3.38677H113.48Z" fill="#82C708" fill-opacity="0.25"/>
<path d="M107.43 4.20397V2.84532C107.43 2.34321 107.16 1.88049 106.72 1.62451L104.41 0.275714C104.19 0.147725 103.93 0.0787964 103.68 0.0787964H102.77C102.36 0.0787964 102.02 0.403691 102.02 0.817193V4.20397C102.02 4.60763 102.35 4.94237 102.77 4.94237H106.69C107.1 4.94237 107.44 4.61748 107.44 4.20397H107.43Z" fill="#82C708" fill-opacity="0.25"/>
<path d="M127.7 4.13519V2.77653C127.7 2.27442 127.43 1.8117 126.99 1.55573L124.68 0.206928C124.46 0.0789388 124.2 0.0100098 123.95 0.0100098H123.04C122.63 0.0100098 122.29 0.334904 122.29 0.748406V4.13519C122.29 4.53884 122.62 4.87358 123.04 4.87358H126.96C127.37 4.87358 127.71 4.54869 127.71 4.13519H127.7Z" fill="#82C708" fill-opacity="0.25"/>
<path d="M39.09 10.3474V6.96063C39.09 6.55697 38.76 6.22223 38.34 6.22223H34.42C34.01 6.22223 33.67 6.54712 33.67 6.96063V8.31928C33.67 8.82139 33.94 9.28411 34.38 9.54009L36.69 10.8889C36.91 11.0169 37.17 11.0858 37.42 11.0858H38.33C38.74 11.0858 39.08 10.7609 39.08 10.3474H39.09Z" fill="#82C708" fill-opacity="0.25"/>
<path d="M100.68 4.13519V0.748406C100.68 0.34475 100.35 0.0100098 99.93 0.0100098H96.01C95.6 0.0100098 95.26 0.334904 95.26 0.748406V2.10706C95.26 2.60917 95.53 3.07189 95.97 3.32787L98.28 4.67667C98.5 4.80466 98.76 4.87358 99.01 4.87358H99.92C100.33 4.87358 100.67 4.54869 100.67 4.13519H100.68Z" fill="#82C708" fill-opacity="0.25"/>
<path d="M79.66 11.0464C80.07 11.0464 80.41 10.7215 80.41 10.308V8.94938C80.41 8.44728 80.14 7.98453 79.7 7.72855L77.39 6.37975C77.17 6.25176 76.91 6.18286 76.66 6.18286H75.75C75.34 6.18286 75 6.50776 75 6.92126V10.308C75 10.7117 75.33 11.0464 75.75 11.0464H79.67H79.66Z" fill="#82C708" fill-opacity="0.25"/>
<path d="M73.65 10.2391V6.85235C73.65 6.44869 73.32 6.11395 72.9 6.11395H68.98C68.57 6.11395 68.23 6.43885 68.23 6.85235V8.211C68.23 8.71311 68.5 9.17583 68.94 9.43181L71.25 10.7806C71.47 10.9086 71.73 10.9775 71.98 10.9775H72.89C73.3 10.9775 73.64 10.6526 73.64 10.2391H73.65Z" fill="#82C708" fill-opacity="0.25"/>
<path d="M52 9.60899C52.44 9.35302 52.71 8.8903 52.71 8.38819V7.02953C52.71 6.62588 52.38 6.29114 51.96 6.29114H48.04C47.63 6.29114 47.29 6.61603 47.29 7.02953V10.4163C47.29 10.82 47.62 11.1547 48.04 11.1547H48.95C49.21 11.1547 49.46 11.0858 49.68 10.9578L51.99 9.60899H52Z" fill="#82C708" fill-opacity="0.25"/>
<path d="M59.46 10.4163V7.02953C59.46 6.62588 59.13 6.29114 58.71 6.29114H54.79C54.38 6.29114 54.04 6.61603 54.04 7.02953V8.38819C54.04 8.8903 54.31 9.35302 54.75 9.60899L57.06 10.9578C57.28 11.0858 57.54 11.1547 57.79 11.1547H58.7C59.11 11.1547 59.45 10.8298 59.45 10.4163H59.46Z" fill="#82C708" fill-opacity="0.25"/>
<path d="M60.14 4.13519V0.748406C60.14 0.34475 59.81 0.0100098 59.39 0.0100098H55.47C55.06 0.0100098 54.72 0.334904 54.72 0.748406V2.10706C54.72 2.60917 54.99 3.07189 55.43 3.32787L57.74 4.67667C57.96 4.80466 58.22 4.87358 58.47 4.87358H59.38C59.79 4.87358 60.13 4.54869 60.13 4.13519H60.14Z" fill="#82C708" fill-opacity="0.25"/>
<path d="M45.95 4.13519V0.748406C45.95 0.34475 45.62 0.0100098 45.2 0.0100098H44.29C44.03 0.0100098 43.78 0.0789388 43.56 0.206928L41.25 1.55573C40.81 1.8117 40.54 2.27442 40.54 2.77653V4.13519C40.54 4.53884 40.87 4.87358 41.29 4.87358H45.21C45.62 4.87358 45.96 4.54869 45.96 4.13519H45.95Z" fill="#82C708" fill-opacity="0.25"/>
<path d="M45.95 10.3474V6.96063C45.95 6.55697 45.62 6.22223 45.2 6.22223H41.28C40.87 6.22223 40.53 6.54712 40.53 6.96063V8.31928C40.53 8.82139 40.8 9.28411 41.24 9.54009L43.55 10.8889C43.77 11.0169 44.03 11.0858 44.28 11.0858H45.19C45.6 11.0858 45.94 10.7609 45.94 10.3474H45.95Z" fill="#82C708" fill-opacity="0.25"/>
<path d="M31.73 9.54009C32.17 9.28411 32.44 8.82139 32.44 8.31928V6.96063C32.44 6.55697 32.11 6.22223 31.69 6.22223H27.77C27.36 6.22223 27.02 6.54712 27.02 6.96063V10.3474C27.02 10.7511 27.35 11.0858 27.77 11.0858H28.68C28.94 11.0858 29.19 11.0169 29.41 10.8889L31.72 9.54009H31.73Z" fill="#82C708" fill-opacity="0.25"/>
<path d="M140.47 11.076C140.88 11.076 141.22 10.7511 141.22 10.3376V8.97899C141.22 8.47688 140.95 8.01413 140.51 7.75815L138.2 6.40935C137.98 6.28136 137.72 6.21246 137.47 6.21246H136.56C136.15 6.21246 135.81 6.53736 135.81 6.95086V10.3376C135.81 10.7413 136.14 11.076 136.56 11.076H140.48H140.47Z" fill="#82C708" fill-opacity="0.25"/>
<path d="M129.05 6.89172V8.25037C129.05 8.75248 129.32 9.21523 129.76 9.47121L132.07 10.82C132.29 10.948 132.55 11.0169 132.8 11.0169H133.71C134.12 11.0169 134.46 10.692 134.46 10.2785V6.89172C134.46 6.48806 134.13 6.15332 133.71 6.15332H129.79C129.38 6.15332 129.04 6.47821 129.04 6.89172H129.05Z" fill="#82C708" fill-opacity="0.25"/>
<path d="M106.69 11.0464C107.1 11.0464 107.44 10.7215 107.44 10.308V8.94938C107.44 8.44728 107.17 7.98453 106.73 7.72855L104.42 6.37975C104.2 6.25176 103.94 6.18286 103.69 6.18286H102.78C102.37 6.18286 102.03 6.50776 102.03 6.92126V10.308C102.03 10.7117 102.36 11.0464 102.78 11.0464H106.7H106.69Z" fill="#82C708" fill-opacity="0.25"/>
<path d="M133.08 21.8467C133.52 21.5907 133.79 21.128 133.79 20.6259V19.2672C133.79 18.8635 133.46 18.5288 133.04 18.5288H129.12C128.71 18.5288 128.37 18.8537 128.37 19.2672V22.654C128.37 23.0576 128.7 23.3924 129.12 23.3924H130.03C130.29 23.3924 130.54 23.3235 130.76 23.1955L133.07 21.8467H133.08Z" fill="#82C708" fill-opacity="0.25"/>
<path d="M139.79 23.3924C140.2 23.3924 140.54 23.0675 140.54 22.654V19.2672C140.54 18.8635 140.21 18.5288 139.79 18.5288H135.87C135.46 18.5288 135.12 18.8537 135.12 19.2672V20.6259C135.12 21.128 135.39 21.5907 135.83 21.8467L138.14 23.1955C138.36 23.3235 138.62 23.3924 138.87 23.3924H139.78H139.79Z" fill="#82C708" fill-opacity="0.25"/>
<path d="M135.88 24.7117C135.47 24.7117 135.13 25.0366 135.13 25.4501V28.8368C135.13 29.2405 135.46 29.5752 135.88 29.5752H136.79C137.05 29.5752 137.3 29.5063 137.52 29.3784L139.83 28.0295C140.27 27.7735 140.54 27.3108 140.54 26.8087V25.4501C140.54 25.0464 140.21 24.7117 139.79 24.7117H135.87H135.88Z" fill="#82C708" fill-opacity="0.25"/>
<path d="M129.12 24.7117C128.71 24.7117 128.37 25.0366 128.37 25.4501V28.8368C128.37 29.2405 128.7 29.5752 129.12 29.5752H133.04C133.45 29.5752 133.79 29.2503 133.79 28.8368V27.4782C133.79 26.9761 133.52 26.5134 133.08 26.2574L130.77 24.9086C130.55 24.7806 130.29 24.7117 130.04 24.7117H129.13H129.12Z" fill="#82C708" fill-opacity="0.25"/>
<path d="M135.81 13.0549V16.4416C135.81 16.8453 136.14 17.18 136.56 17.18H140.48C140.89 17.18 141.23 16.8551 141.23 16.4416V15.083C141.23 14.5809 140.96 14.1182 140.52 13.8622L138.21 12.5134C137.99 12.3854 137.73 12.3165 137.48 12.3165H136.57C136.16 12.3165 135.82 12.6414 135.82 13.0549H135.81Z" fill="#82C708" fill-opacity="0.25"/>
<path d="M52.71 35.1378V33.7792C52.71 33.2771 52.44 32.8143 52 32.5584L49.69 31.2096C49.47 31.0816 49.21 31.0126 48.96 31.0126H48.05C47.64 31.0126 47.3 31.3375 47.3 31.751V35.1378C47.3 35.5415 47.63 35.8762 48.05 35.8762H51.97C52.38 35.8762 52.72 35.5513 52.72 35.1378H52.71Z" fill="#82C708" fill-opacity="0.25"/>
<path d="M25.68 41.2419V37.8552C25.68 37.4515 25.35 37.1168 24.93 37.1168H24.02C23.76 37.1168 23.51 37.1857 23.29 37.3137L20.98 38.6625C20.54 38.9185 20.27 39.3812 20.27 39.8833V41.2419C20.27 41.6456 20.6 41.9803 21.02 41.9803H24.94C25.35 41.9803 25.69 41.6554 25.69 41.2419H25.68Z" fill="#82C708" fill-opacity="0.25"/>
<path d="M18.93 41.2419V39.8833C18.93 39.3812 18.66 38.9185 18.22 38.6625L15.91 37.3137C15.69 37.1857 15.43 37.1168 15.18 37.1168H14.27C13.86 37.1168 13.52 37.4417 13.52 37.8552V41.2419C13.52 41.6456 13.85 41.9803 14.27 41.9803H18.19C18.6 41.9803 18.94 41.6554 18.94 41.2419H18.93Z" fill="#82C708" fill-opacity="0.25"/>
<path d="M18.22 34.2616C18.66 34.0057 18.93 33.5429 18.93 33.0408V31.6822C18.93 31.2785 18.6 30.9438 18.18 30.9438H14.26C13.85 30.9438 13.51 31.2687 13.51 31.6822V35.069C13.51 35.4726 13.84 35.8074 14.26 35.8074H15.17C15.43 35.8074 15.68 35.7384 15.9 35.6104L18.21 34.2616H18.22Z" fill="#82C708" fill-opacity="0.25"/>
<path d="M24.94 35.7975C25.35 35.7975 25.69 35.4726 25.69 35.0591V31.6724C25.69 31.2687 25.36 30.934 24.94 30.934H21.02C20.61 30.934 20.27 31.2589 20.27 31.6724V33.031C20.27 33.5331 20.54 33.9958 20.98 34.2518L23.29 35.6006C23.51 35.7286 23.77 35.7975 24.02 35.7975H24.93H24.94Z" fill="#82C708" fill-opacity="0.25"/>
<path d="M45.24 34.3305C45.68 34.0745 45.95 33.6118 45.95 33.1097V31.751C45.95 31.3474 45.62 31.0126 45.2 31.0126H41.28C40.87 31.0126 40.53 31.3375 40.53 31.751V35.1378C40.53 35.5415 40.86 35.8762 41.28 35.8762H42.19C42.45 35.8762 42.7 35.8073 42.92 35.6793L45.23 34.3305H45.24Z" fill="#82C708" fill-opacity="0.25"/>
<path d="M54.05 31.6625V33.0211C54.05 33.5232 54.32 33.986 54.76 34.242L57.07 35.5908C57.29 35.7187 57.55 35.7876 57.8 35.7876H58.71C59.12 35.7876 59.46 35.4628 59.46 35.0493V31.6625C59.46 31.2588 59.13 30.9241 58.71 30.9241H54.79C54.38 30.9241 54.04 31.249 54.04 31.6625H54.05Z" fill="#82C708" fill-opacity="0.25"/>
<path d="M66.22 41.2616V39.903C66.22 39.4009 65.95 38.9381 65.51 38.6821L63.2 37.3333C62.98 37.2053 62.72 37.1364 62.47 37.1364H61.56C61.15 37.1364 60.81 37.4613 60.81 37.8748V41.2616C60.81 41.6652 61.14 42 61.56 42H65.48C65.89 42 66.23 41.6751 66.23 41.2616H66.22Z" fill="#82C708" fill-opacity="0.25"/>
<path d="M58.76 40.4543C59.2 40.1983 59.47 39.7356 59.47 39.2335V37.8748C59.47 37.4712 59.14 37.1364 58.72 37.1364H54.8C54.39 37.1364 54.05 37.4613 54.05 37.8748V41.2616C54.05 41.6652 54.38 42 54.8 42H55.71C55.97 42 56.22 41.9311 56.44 41.8031L58.75 40.4543H58.76Z" fill="#82C708" fill-opacity="0.25"/>
<path d="M39.19 35.1378V33.7792C39.19 33.2771 38.92 32.8143 38.48 32.5584L36.17 31.2096C35.95 31.0816 35.69 31.0126 35.44 31.0126H34.53C34.12 31.0126 33.78 31.3375 33.78 31.751V35.1378C33.78 35.5415 34.11 35.8762 34.53 35.8762H38.45C38.86 35.8762 39.2 35.5513 39.2 35.1378H39.19Z" fill="#82C708" fill-opacity="0.25"/>
<path d="M31.69 35.7975C32.1 35.7975 32.44 35.4726 32.44 35.0591V31.6724C32.44 31.2687 32.11 30.934 31.69 30.934H27.77C27.36 30.934 27.02 31.2589 27.02 31.6724V33.031C27.02 33.5331 27.29 33.9958 27.73 34.2518L30.04 35.6006C30.26 35.7286 30.52 35.7975 30.77 35.7975H31.68H31.69Z" fill="#82C708" fill-opacity="0.25"/>
<path d="M6.76001 31.6428V35.0295C6.76001 35.4332 7.09001 35.7679 7.51001 35.7679H11.43C11.84 35.7679 12.18 35.443 12.18 35.0295V33.6709C12.18 33.1688 11.91 32.7061 11.47 32.4501L9.16001 31.1013C8.94001 30.9733 8.68001 30.9044 8.43001 30.9044H7.52001C7.11001 30.9044 6.77001 31.2293 6.77001 31.6428H6.76001Z" fill="#82C708" fill-opacity="0.25"/>
<path d="M5.41 35.1378V31.751C5.41 31.3474 5.08 31.0126 4.66 31.0126H0.75C0.34 31.0126 0 31.3375 0 31.751V33.1097C0 33.6118 0.27 34.0745 0.71 34.3305L3.02 35.6793C3.24 35.8073 3.5 35.8762 3.75 35.8762H4.66C5.07 35.8762 5.41 35.5513 5.41 35.1378Z" fill="#82C708" fill-opacity="0.25"/>
<path d="M39.19 41.2419V39.8833C39.19 39.3812 38.92 38.9185 38.48 38.6625L36.17 37.3137C35.95 37.1857 35.69 37.1168 35.44 37.1168H34.53C34.12 37.1168 33.78 37.4417 33.78 37.8552V41.2419C33.78 41.6456 34.11 41.9803 34.53 41.9803H38.45C38.86 41.9803 39.2 41.6554 39.2 41.2419H39.19Z" fill="#82C708" fill-opacity="0.25"/>
<path d="M222.69 17.2588C223.1 17.2588 223.44 16.9339 223.44 16.5204V13.1337C223.44 12.73 223.11 12.3953 222.69 12.3953H218.77C218.36 12.3953 218.02 12.7202 218.02 13.1337V14.4923C218.02 14.9944 218.29 15.4571 218.73 15.7131L221.04 17.0619C221.26 17.1899 221.52 17.2588 221.77 17.2588H222.68H222.69Z" fill="#82C708" fill-opacity="0.25"/>
<path d="M212.93 17.2588C213.19 17.2588 213.44 17.1899 213.66 17.0619L215.97 15.7131C216.41 15.4571 216.68 14.9944 216.68 14.4923V13.1337C216.68 12.73 216.35 12.3953 215.93 12.3953H212.01C211.6 12.3953 211.26 12.7202 211.26 13.1337V16.5204C211.26 16.9241 211.59 17.2588 212.01 17.2588H212.92H212.93Z" fill="#82C708" fill-opacity="0.25"/>
<path d="M188.9 17.2588C189.31 17.2588 189.65 16.9339 189.65 16.5204V13.1337C189.65 12.73 189.32 12.3953 188.9 12.3953H184.98C184.57 12.3953 184.23 12.7202 184.23 13.1337V14.4923C184.23 14.9944 184.5 15.4571 184.94 15.7131L187.25 17.0619C187.47 17.1899 187.73 17.2588 187.98 17.2588H188.89H188.9Z" fill="#82C708" fill-opacity="0.25"/>
<path d="M179.14 17.2588C179.4 17.2588 179.65 17.1899 179.87 17.0619L182.18 15.7131C182.62 15.4571 182.89 14.9944 182.89 14.4923V13.1337C182.89 12.73 182.56 12.3953 182.14 12.3953H178.22C177.81 12.3953 177.47 12.7202 177.47 13.1337V16.5204C177.47 16.9241 177.8 17.2588 178.22 17.2588H179.13H179.14Z" fill="#82C708" fill-opacity="0.25"/>
<path d="M182.89 22.7032V19.3165C182.89 18.9128 182.56 18.5781 182.14 18.5781H178.22C177.81 18.5781 177.47 18.903 177.47 19.3165V20.6751C177.47 21.1772 177.74 21.6399 178.18 21.8959L180.49 23.2447C180.71 23.3727 180.97 23.4416 181.22 23.4416H182.13C182.54 23.4416 182.88 23.1167 182.88 22.7032H182.89Z" fill="#82C708" fill-opacity="0.25"/>
<path d="M189.65 22.7032V19.3165C189.65 18.9128 189.32 18.5781 188.9 18.5781H187.99C187.73 18.5781 187.48 18.647 187.26 18.775L184.95 20.1238C184.51 20.3797 184.24 20.8425 184.24 21.3446V22.7032C184.24 23.1069 184.57 23.4416 184.99 23.4416H188.91C189.32 23.4416 189.66 23.1167 189.66 22.7032H189.65Z" fill="#82C708" fill-opacity="0.25"/>
<path d="M182.89 28.8368V25.4501C182.89 25.0464 182.56 24.7117 182.14 24.7117H181.23C180.97 24.7117 180.72 24.7806 180.5 24.9086L178.19 26.2574C177.75 26.5134 177.48 26.9761 177.48 27.4782V28.8368C177.48 29.2405 177.81 29.5752 178.23 29.5752H182.15C182.56 29.5752 182.9 29.2503 182.9 28.8368H182.89Z" fill="#82C708" fill-opacity="0.25"/>
<path d="M209.17 23.3728C209.58 23.3728 209.92 23.0479 209.92 22.6344V21.2757C209.92 20.7736 209.65 20.3109 209.21 20.0549L206.9 18.7061C206.68 18.5781 206.42 18.5092 206.17 18.5092H205.26C204.85 18.5092 204.51 18.8341 204.51 19.2476V22.6344C204.51 23.0381 204.84 23.3728 205.26 23.3728H209.18H209.17Z" fill="#82C708" fill-opacity="0.25"/>
<path d="M215.93 29.6245C216.34 29.6245 216.68 29.2996 216.68 28.8861V27.5274C216.68 27.0253 216.41 26.5626 215.97 26.3066L213.66 24.9578C213.44 24.8298 213.18 24.7609 212.93 24.7609H212.02C211.61 24.7609 211.27 25.0858 211.27 25.4993V28.8861C211.27 29.2898 211.6 29.6245 212.02 29.6245H215.94H215.93Z" fill="#82C708" fill-opacity="0.25"/>
<path d="M197.75 19.2574V22.6442C197.75 23.0478 198.08 23.3826 198.5 23.3826H199.41C199.67 23.3826 199.92 23.3137 200.14 23.1857L202.45 21.8369C202.89 21.5809 203.16 21.1182 203.16 20.6161V19.2574C203.16 18.8538 202.83 18.519 202.41 18.519H198.49C198.08 18.519 197.74 18.8439 197.74 19.2574H197.75Z" fill="#82C708" fill-opacity="0.25"/>
<path d="M222.73 28.1083C223.17 27.8523 223.44 27.3896 223.44 26.8875V25.5289C223.44 25.1252 223.11 24.7905 222.69 24.7905H218.77C218.36 24.7905 218.02 25.1154 218.02 25.5289V28.9156C218.02 29.3193 218.35 29.654 218.77 29.654H219.68C219.94 29.654 220.19 29.5851 220.41 29.4571L222.72 28.1083H222.73Z" fill="#82C708" fill-opacity="0.25"/>
<path d="M223.43 35.1378V31.751C223.43 31.3474 223.1 31.0126 222.68 31.0126H221.77C221.51 31.0126 221.26 31.0816 221.04 31.2096L218.73 32.5584C218.29 32.8143 218.02 33.2771 218.02 33.7792V35.1378C218.02 35.5415 218.35 35.8762 218.77 35.8762H222.69C223.1 35.8762 223.44 35.5513 223.44 35.1378H223.43Z" fill="#82C708" fill-opacity="0.25"/>
<path d="M222.73 21.8959C223.17 21.6399 223.44 21.1772 223.44 20.6751V19.3165C223.44 18.9128 223.11 18.5781 222.69 18.5781H218.77C218.36 18.5781 218.02 18.903 218.02 19.3165V22.7032C218.02 23.1069 218.35 23.4416 218.77 23.4416H219.68C219.94 23.4416 220.19 23.3727 220.41 23.2447L222.72 21.8959H222.73Z" fill="#82C708" fill-opacity="0.25"/>
<path d="M249.85 21.8959C250.29 21.6399 250.56 21.1772 250.56 20.6751V19.3165C250.56 18.9128 250.23 18.5781 249.81 18.5781H245.89C245.48 18.5781 245.14 18.903 245.14 19.3165V22.7032C245.14 23.1069 245.47 23.4416 245.89 23.4416H246.8C247.06 23.4416 247.31 23.3727 247.53 23.2447L249.84 21.8959H249.85Z" fill="#82C708" fill-opacity="0.25"/>
<path d="M224.78 25.4698V28.8566C224.78 29.2602 225.11 29.595 225.53 29.595H229.45C229.86 29.595 230.2 29.2701 230.2 28.8566V27.4979C230.2 26.9958 229.93 26.533 229.49 26.2771L227.18 24.9283C226.96 24.8003 226.7 24.7314 226.45 24.7314H225.54C225.13 24.7314 224.79 25.0563 224.79 25.4698H224.78Z" fill="#82C708" fill-opacity="0.25"/>
<path d="M242.99 28.1083C243.43 27.8523 243.7 27.3896 243.7 26.8875V25.5289C243.7 25.1252 243.37 24.7905 242.95 24.7905H239.03C238.62 24.7905 238.28 25.1154 238.28 25.5289V28.9156C238.28 29.3193 238.61 29.654 239.03 29.654H239.94C240.2 29.654 240.45 29.5851 240.67 29.4571L242.98 28.1083H242.99Z" fill="#82C708" fill-opacity="0.25"/>
<path d="M199.41 29.6245C199.67 29.6245 199.92 29.5556 200.14 29.4276L202.45 28.0788C202.89 27.8228 203.16 27.3601 203.16 26.858V25.4993C203.16 25.0957 202.83 24.7609 202.41 24.7609H198.49C198.08 24.7609 197.74 25.0858 197.74 25.4993V28.8861C197.74 29.2898 198.07 29.6245 198.49 29.6245H199.4H199.41Z" fill="#82C708" fill-opacity="0.25"/>
<path d="M196.41 22.7032V19.3165C196.41 18.9128 196.08 18.5781 195.66 18.5781H194.75C194.49 18.5781 194.24 18.647 194.02 18.775L191.71 20.1238C191.27 20.3797 191 20.8425 191 21.3446V22.7032C191 23.1069 191.33 23.4416 191.75 23.4416H195.67C196.08 23.4416 196.42 23.1167 196.42 22.7032H196.41Z" fill="#82C708" fill-opacity="0.25"/>
<path d="M170.73 13.1434V16.5302C170.73 16.9339 171.06 17.2686 171.48 17.2686H172.39C172.65 17.2686 172.9 17.1997 173.12 17.0717L175.43 15.7229C175.87 15.4669 176.14 15.0042 176.14 14.5021V13.1434C176.14 12.7398 175.81 12.405 175.39 12.405H171.47C171.06 12.405 170.72 12.7299 170.72 13.1434H170.73Z" fill="#82C708" fill-opacity="0.25"/>
<path d="M169.38 16.5992V13.2124C169.38 12.8087 169.05 12.474 168.63 12.474H167.72C167.46 12.474 167.21 12.5429 166.99 12.6709L164.68 14.0197C164.24 14.2757 163.97 14.7384 163.97 15.2405V16.5992C163.97 17.0028 164.3 17.3376 164.72 17.3376H168.64C169.05 17.3376 169.39 17.0127 169.39 16.5992H169.38Z" fill="#82C708" fill-opacity="0.25"/>
<path d="M238.29 13.1041V16.4909C238.29 16.8945 238.62 17.2293 239.04 17.2293H242.96C243.37 17.2293 243.71 16.9044 243.71 16.4909V15.1322C243.71 14.6301 243.44 14.1674 243 13.9114L240.69 12.5626C240.47 12.4346 240.21 12.3657 239.96 12.3657H239.05C238.64 12.3657 238.3 12.6906 238.3 13.1041H238.29Z" fill="#82C708" fill-opacity="0.25"/>
<path d="M242.99 21.8959C243.43 21.6399 243.7 21.1772 243.7 20.6751V19.3165C243.7 18.9128 243.37 18.5781 242.95 18.5781H239.03C238.62 18.5781 238.28 18.903 238.28 19.3165V22.7032C238.28 23.1069 238.61 23.4416 239.03 23.4416H239.94C240.2 23.4416 240.45 23.3727 240.67 23.2447L242.98 21.8959H242.99Z" fill="#82C708" fill-opacity="0.25"/>
<path d="M229.48 21.8959C229.92 21.6399 230.19 21.1772 230.19 20.6751V19.3165C230.19 18.9128 229.86 18.5781 229.44 18.5781H225.52C225.11 18.5781 224.77 18.903 224.77 19.3165V22.7032C224.77 23.1069 225.1 23.4416 225.52 23.4416H226.43C226.69 23.4416 226.94 23.3727 227.16 23.2447L229.47 21.8959H229.48Z" fill="#82C708" fill-opacity="0.25"/>
<path d="M257.21 22.7032V19.3165C257.21 18.9128 256.88 18.5781 256.46 18.5781H252.54C252.13 18.5781 251.79 18.903 251.79 19.3165V20.6751C251.79 21.1772 252.06 21.6399 252.5 21.8959L254.81 23.2447C255.03 23.3727 255.29 23.4416 255.54 23.4416H256.45C256.86 23.4416 257.2 23.1167 257.2 22.7032H257.21Z" fill="#82C708" fill-opacity="0.25"/>
<path d="M263.22 17.2982C263.63 17.2982 263.97 16.9733 263.97 16.5598V13.173C263.97 12.7694 263.64 12.4346 263.22 12.4346H259.3C258.89 12.4346 258.55 12.7595 258.55 13.173V14.5317C258.55 15.0338 258.82 15.4965 259.26 15.7525L261.57 17.1013C261.79 17.2293 262.05 17.2982 262.3 17.2982H263.21H263.22Z" fill="#82C708" fill-opacity="0.25"/>
<path d="M272.07 19.2672V20.6259C272.07 21.128 272.34 21.5907 272.78 21.8467L275.09 23.1955C275.31 23.3235 275.57 23.3924 275.82 23.3924H276.73C277.14 23.3924 277.48 23.0675 277.48 22.654V19.2672C277.48 18.8635 277.15 18.5288 276.73 18.5288H272.81C272.4 18.5288 272.06 18.8537 272.06 19.2672H272.07Z" fill="#82C708" fill-opacity="0.25"/>
<path d="M232.28 12.3755C231.87 12.3755 231.53 12.7004 231.53 13.1139V16.5007C231.53 16.9044 231.86 17.2391 232.28 17.2391H233.19C233.45 17.2391 233.7 17.1702 233.92 17.0422L236.23 15.6934C236.67 15.4374 236.94 14.9747 236.94 14.4726V13.1139C236.94 12.7103 236.61 12.3755 236.19 12.3755H232.27H232.28Z" fill="#82C708" fill-opacity="0.25"/>
<path d="M229.44 17.2982C229.85 17.2982 230.19 16.9733 230.19 16.5598V13.173C230.19 12.7694 229.86 12.4346 229.44 12.4346H228.53C228.27 12.4346 228.02 12.5036 227.8 12.6315L225.49 13.9803C225.05 14.2363 224.78 14.699 224.78 15.2012V16.5598C224.78 16.9635 225.11 17.2982 225.53 17.2982H229.45H229.44Z" fill="#82C708" fill-opacity="0.25"/>
<path d="M163.97 25.4501V26.8087C163.97 27.3108 164.24 27.7735 164.68 28.0295L166.99 29.3784C167.21 29.5063 167.47 29.5752 167.72 29.5752H168.63C169.04 29.5752 169.38 29.2503 169.38 28.8368V25.4501C169.38 25.0464 169.05 24.7117 168.63 24.7117H164.71C164.3 24.7117 163.96 25.0366 163.96 25.4501H163.97Z" fill="#82C708" fill-opacity="0.25"/>
<path d="M157.96 24.7117C157.55 24.7117 157.21 25.0366 157.21 25.4501V28.8368C157.21 29.2405 157.54 29.5752 157.96 29.5752H158.87C159.13 29.5752 159.38 29.5063 159.6 29.3784L161.91 28.0295C162.35 27.7735 162.62 27.3108 162.62 26.8087V25.4501C162.62 25.0464 162.29 24.7117 161.87 24.7117H157.95H157.96Z" fill="#82C708" fill-opacity="0.25"/>
<path d="M155.87 34.9508V33.5922C155.87 33.0901 155.6 32.6273 155.16 32.3714L152.85 31.0226C152.63 30.8946 152.37 30.8257 152.12 30.8257H151.21C150.8 30.8257 150.46 31.1506 150.46 31.5641V34.9508C150.46 35.3545 150.79 35.6892 151.21 35.6892H155.13C155.54 35.6892 155.88 35.3643 155.88 34.9508H155.87Z" fill="#82C708" fill-opacity="0.25"/>
<path d="M157.96 37.0774C157.55 37.0774 157.21 37.4023 157.21 37.8158V41.2026C157.21 41.6062 157.54 41.941 157.96 41.941H161.88C162.29 41.941 162.63 41.6161 162.63 41.2026V39.8439C162.63 39.3418 162.36 38.8791 161.92 38.6231L159.61 37.2743C159.39 37.1463 159.13 37.0774 158.88 37.0774H157.97H157.96Z" fill="#82C708" fill-opacity="0.25"/>
<path d="M163.97 37.8453V41.2321C163.97 41.6357 164.3 41.9704 164.72 41.9704H165.63C165.89 41.9704 166.14 41.9015 166.36 41.7736L168.67 40.4248C169.11 40.1688 169.38 39.706 169.38 39.2039V37.8453C169.38 37.4416 169.05 37.1069 168.63 37.1069H164.71C164.3 37.1069 163.96 37.4318 163.96 37.8453H163.97Z" fill="#82C708" fill-opacity="0.25"/>
<path d="M165.63 35.7482C165.89 35.7482 166.14 35.6793 166.36 35.5513L168.67 34.2025C169.11 33.9465 169.38 33.4838 169.38 32.9817V31.623C169.38 31.2194 169.05 30.8846 168.63 30.8846H164.71C164.3 30.8846 163.96 31.2095 163.96 31.623V35.0098C163.96 35.4135 164.29 35.7482 164.71 35.7482H165.62H165.63Z" fill="#82C708" fill-opacity="0.25"/>
<path d="M188.9 35.7482C189.31 35.7482 189.65 35.4233 189.65 35.0098V31.623C189.65 31.2194 189.32 30.8846 188.9 30.8846H187.99C187.73 30.8846 187.48 30.9535 187.26 31.0815L184.95 32.4303C184.51 32.6863 184.24 33.1491 184.24 33.6512V35.0098C184.24 35.4135 184.57 35.7482 184.99 35.7482H188.91H188.9Z" fill="#82C708" fill-opacity="0.25"/>
<path d="M170.73 37.7764V41.1631C170.73 41.5668 171.06 41.9015 171.48 41.9015H175.4C175.81 41.9015 176.15 41.5766 176.15 41.1631V39.8045C176.15 39.3024 175.88 38.8396 175.44 38.5837L173.13 37.2349C172.91 37.1069 172.65 37.038 172.4 37.038H171.49C171.08 37.038 170.74 37.3629 170.74 37.7764H170.73Z" fill="#82C708" fill-opacity="0.25"/>
<path d="M172.39 35.7482C172.65 35.7482 172.9 35.6793 173.12 35.5513L175.43 34.2025C175.87 33.9465 176.14 33.4838 176.14 32.9817V31.623C176.14 31.2194 175.81 30.8846 175.39 30.8846H171.47C171.06 30.8846 170.72 31.2095 170.72 31.623V35.0098C170.72 35.4135 171.05 35.7482 171.47 35.7482H172.38H172.39Z" fill="#82C708" fill-opacity="0.25"/>
<path d="M175.39 29.6048C175.8 29.6048 176.14 29.2799 176.14 28.8664V25.4796C176.14 25.076 175.81 24.7412 175.39 24.7412H174.48C174.22 24.7412 173.97 24.8101 173.75 24.9381L171.44 26.2869C171 26.5429 170.73 27.0056 170.73 27.5077V28.8664C170.73 29.27 171.06 29.6048 171.48 29.6048H175.4H175.39Z" fill="#82C708" fill-opacity="0.25"/>
<path d="M197.75 37.865V41.2518C197.75 41.6554 198.08 41.9902 198.5 41.9902H202.42C202.83 41.9902 203.17 41.6653 203.17 41.2518V39.8931C203.17 39.391 202.9 38.9283 202.46 38.6723L200.15 37.3235C199.93 37.1955 199.67 37.1266 199.42 37.1266H198.51C198.1 37.1266 197.76 37.4515 197.76 37.865H197.75Z" fill="#82C708" fill-opacity="0.25"/>
<path d="M205.22 38.6723C204.78 38.9283 204.51 39.391 204.51 39.8931V41.2518C204.51 41.6554 204.84 41.9902 205.26 41.9902H209.18C209.59 41.9902 209.93 41.6653 209.93 41.2518V37.865C209.93 37.4613 209.6 37.1266 209.18 37.1266H208.27C208.01 37.1266 207.76 37.1955 207.54 37.3235L205.23 38.6723H205.22Z" fill="#82C708" fill-opacity="0.25"/>
<path d="M205.22 32.4895C204.78 32.7455 204.51 33.2082 204.51 33.7103V35.069C204.51 35.4726 204.84 35.8074 205.26 35.8074H209.18C209.59 35.8074 209.93 35.4825 209.93 35.069V31.6822C209.93 31.2785 209.6 30.9438 209.18 30.9438H208.27C208.01 30.9438 207.76 31.0127 207.54 31.1407L205.23 32.4895H205.22Z" fill="#82C708" fill-opacity="0.25"/>
<path d="M195.7 34.3305C196.14 34.0745 196.41 33.6118 196.41 33.1097V31.751C196.41 31.3474 196.08 31.0126 195.66 31.0126H191.74C191.33 31.0126 190.99 31.3375 190.99 31.751V35.1378C190.99 35.5415 191.32 35.8762 191.74 35.8762H192.65C192.91 35.8762 193.16 35.8073 193.38 35.6793L195.69 34.3305H195.7Z" fill="#82C708" fill-opacity="0.25"/>
<path d="M278.83 25.4698V28.8566C278.83 29.2602 279.16 29.595 279.58 29.595H283.5C283.91 29.595 284.25 29.2701 284.25 28.8566V27.4979C284.25 26.9958 283.98 26.533 283.54 26.2771L281.23 24.9283C281.01 24.8003 280.75 24.7314 280.5 24.7314H279.59C279.18 24.7314 278.84 25.0563 278.84 25.4698H278.83Z" fill="#82C708" fill-opacity="0.25"/>
<path d="M269.98 23.4023C270.39 23.4023 270.73 23.0774 270.73 22.6639V19.2771C270.73 18.8734 270.4 18.5387 269.98 18.5387H269.07C268.81 18.5387 268.56 18.6076 268.34 18.7356L266.03 20.0844C265.59 20.3404 265.32 20.8031 265.32 21.3052V22.6639C265.32 23.0675 265.65 23.4023 266.07 23.4023H269.99H269.98Z" fill="#82C708" fill-opacity="0.25"/>
<path d="M269.98 17.2982C270.39 17.2982 270.73 16.9733 270.73 16.5598V13.173C270.73 12.7694 270.4 12.4346 269.98 12.4346H269.07C268.81 12.4346 268.56 12.5036 268.34 12.6315L266.03 13.9803C265.59 14.2363 265.32 14.699 265.32 15.2012V16.5598C265.32 16.9635 265.65 17.2982 266.07 17.2982H269.99H269.98Z" fill="#82C708" fill-opacity="0.25"/>
<path d="M258.56 25.4993V26.858C258.56 27.3601 258.83 27.8228 259.27 28.0788L261.58 29.4276C261.8 29.5556 262.06 29.6245 262.31 29.6245H263.22C263.63 29.6245 263.97 29.2996 263.97 28.8861V25.4993C263.97 25.0957 263.64 24.7609 263.22 24.7609H259.3C258.89 24.7609 258.55 25.0858 258.55 25.4993H258.56Z" fill="#82C708" fill-opacity="0.25"/>
<path d="M259.27 20.0942C258.83 20.3502 258.56 20.8129 258.56 21.315V22.6737C258.56 23.0774 258.89 23.4121 259.31 23.4121H263.23C263.64 23.4121 263.98 23.0872 263.98 22.6737V19.2869C263.98 18.8833 263.65 18.5485 263.23 18.5485H262.32C262.06 18.5485 261.81 18.6174 261.59 18.7454L259.28 20.0942H259.27Z" fill="#82C708" fill-opacity="0.25"/>
<path d="M269.98 29.6245C270.39 29.6245 270.73 29.2996 270.73 28.8861V25.4993C270.73 25.0957 270.4 24.7609 269.98 24.7609H269.07C268.81 24.7609 268.56 24.8298 268.34 24.9578L266.03 26.3066C265.59 26.5626 265.32 27.0253 265.32 27.5274V28.8861C265.32 29.2898 265.65 29.6245 266.07 29.6245H269.99H269.98Z" fill="#82C708" fill-opacity="0.25"/>
<path d="M272.82 24.7018C272.41 24.7018 272.07 25.0267 272.07 25.4402V28.827C272.07 29.2307 272.4 29.5654 272.82 29.5654H273.73C273.99 29.5654 274.24 29.4965 274.46 29.3685L276.77 28.0197C277.21 27.7637 277.48 27.301 277.48 26.7989V25.4402C277.48 25.0366 277.15 24.7018 276.73 24.7018H272.81H272.82Z" fill="#82C708" fill-opacity="0.25"/>
<path d="M272.82 12.3755C272.41 12.3755 272.07 12.7004 272.07 13.1139V16.5007C272.07 16.9044 272.4 17.2391 272.82 17.2391H273.73C273.99 17.2391 274.24 17.1702 274.46 17.0422L276.77 15.6934C277.21 15.4374 277.48 14.9747 277.48 14.4726V13.1139C277.48 12.7103 277.15 12.3755 276.73 12.3755H272.81H272.82Z" fill="#82C708" fill-opacity="0.25"/>
<path d="M278.83 13.1041V16.4909C278.83 16.8945 279.16 17.2293 279.58 17.2293H280.49C280.75 17.2293 281 17.1604 281.22 17.0324L283.53 15.6836C283.97 15.4276 284.24 14.9649 284.24 14.4627V13.1041C284.24 12.7005 283.91 12.3657 283.49 12.3657H279.57C279.16 12.3657 278.82 12.6906 278.82 13.1041H278.83Z" fill="#82C708" fill-opacity="0.25"/>
<path d="M272.82 6.12372C272.41 6.12372 272.07 6.44861 272.07 6.86211V8.22077C272.07 8.72288 272.34 9.18563 272.78 9.44161L275.09 10.7904C275.31 10.9184 275.57 10.9873 275.82 10.9873H276.73C277.14 10.9873 277.48 10.6624 277.48 10.2489V6.86211C277.48 6.45846 277.15 6.12372 276.73 6.12372H272.81H272.82Z" fill="#82C708" fill-opacity="0.25"/>
<path d="M284.24 10.2391V8.88048C284.24 8.37837 283.97 7.91565 283.53 7.65967L281.22 6.31084C281 6.18285 280.74 6.11395 280.49 6.11395H279.58C279.17 6.11395 278.83 6.43885 278.83 6.85235V10.2391C278.83 10.6428 279.16 10.9775 279.58 10.9775H283.5C283.91 10.9775 284.25 10.6526 284.25 10.2391H284.24Z" fill="#82C708" fill-opacity="0.25"/>
<path d="M266.98 4.86357C267.24 4.86357 267.49 4.79468 267.71 4.66669L270.02 3.31789C270.46 3.06191 270.73 2.59916 270.73 2.09705V0.738397C270.73 0.33474 270.4 0 269.98 0H266.06C265.65 0 265.31 0.324895 265.31 0.738397V4.12518C265.31 4.52883 265.64 4.86357 266.06 4.86357H266.97H266.98Z" fill="#82C708" fill-opacity="0.25"/>
<path d="M269.07 6.12372C268.81 6.12372 268.56 6.19265 268.34 6.32064L266.03 7.66944C265.59 7.92541 265.32 8.38816 265.32 8.89027V10.2489C265.32 10.6526 265.65 10.9873 266.07 10.9873H269.99C270.4 10.9873 270.74 10.6624 270.74 10.2489V6.86211C270.74 6.45846 270.41 6.12372 269.99 6.12372H269.08H269.07Z" fill="#82C708" fill-opacity="0.25"/>
<path d="M260.22 4.86357C260.48 4.86357 260.73 4.79468 260.95 4.66669L263.26 3.31789C263.7 3.06191 263.97 2.59916 263.97 2.09705V0.738397C263.97 0.33474 263.64 0 263.22 0H259.3C258.89 0 258.55 0.324895 258.55 0.738397V4.12518C258.55 4.52883 258.88 4.86357 259.3 4.86357H260.21H260.22Z" fill="#82C708" fill-opacity="0.25"/>
<path d="M263.97 10.308V6.92126C263.97 6.5176 263.64 6.18286 263.22 6.18286H262.31C262.05 6.18286 261.8 6.25176 261.58 6.37975L259.27 7.72855C258.83 7.98453 258.56 8.44728 258.56 8.94938V10.308C258.56 10.7117 258.89 11.0464 259.31 11.0464H263.23C263.64 11.0464 263.98 10.7215 263.98 10.308H263.97Z" fill="#82C708" fill-opacity="0.25"/>
<path d="M199.41 17.2588C199.67 17.2588 199.92 17.1899 200.14 17.0619L202.45 15.7131C202.89 15.4571 203.16 14.9944 203.16 14.4923V13.1337C203.16 12.73 202.83 12.3953 202.41 12.3953H198.49C198.08 12.3953 197.74 12.7202 197.74 13.1337V16.5204C197.74 16.9241 198.07 17.2588 198.49 17.2588H199.4H199.41Z" fill="#82C708" fill-opacity="0.25"/>
<path d="M157.29 6.19275C156.88 6.19275 156.54 6.51764 156.54 6.93115V10.3179C156.54 10.7216 156.87 11.0563 157.29 11.0563H161.21C161.62 11.0563 161.96 10.7314 161.96 10.3179V8.95927C161.96 8.45716 161.69 7.99444 161.25 7.73847L158.94 6.38967C158.72 6.26168 158.46 6.19275 158.21 6.19275H157.3H157.29Z" fill="#82C708" fill-opacity="0.25"/>
<path d="M167.05 6.19275C166.79 6.19275 166.54 6.26168 166.32 6.38967L164.01 7.73847C163.57 7.99444 163.3 8.45716 163.3 8.95927V10.3179C163.3 10.7216 163.63 11.0563 164.05 11.0563H167.97C168.38 11.0563 168.72 10.7314 168.72 10.3179V6.93115C168.72 6.52749 168.39 6.19275 167.97 6.19275H167.06H167.05Z" fill="#82C708" fill-opacity="0.25"/>
<path d="M191.07 6.19275C190.66 6.19275 190.32 6.51764 190.32 6.93115V10.3179C190.32 10.7216 190.65 11.0563 191.07 11.0563H194.99C195.4 11.0563 195.74 10.7314 195.74 10.3179V8.95927C195.74 8.45716 195.47 7.99444 195.03 7.73847L192.72 6.38967C192.5 6.26168 192.24 6.19275 191.99 6.19275H191.08H191.07Z" fill="#82C708" fill-opacity="0.25"/>
<path d="M197.79 7.73847C197.35 7.99444 197.08 8.45716 197.08 8.95927V10.3179C197.08 10.7216 197.41 11.0563 197.83 11.0563H201.75C202.16 11.0563 202.5 10.7314 202.5 10.3179V6.93115C202.5 6.52749 202.17 6.19275 201.75 6.19275H200.84C200.58 6.19275 200.33 6.26168 200.11 6.38967L197.8 7.73847H197.79Z" fill="#82C708" fill-opacity="0.25"/>
<path d="M201.74 4.86357C202.15 4.86357 202.49 4.53868 202.49 4.12518V2.76655C202.49 2.26444 202.22 1.80169 201.78 1.54572L199.47 0.196918C199.25 0.068929 198.99 0 198.74 0H197.83C197.42 0 197.08 0.324895 197.08 0.738397V4.12518C197.08 4.52883 197.41 4.86357 197.83 4.86357H201.75H201.74Z" fill="#82C708" fill-opacity="0.25"/>
<path d="M191.98 4.86357C192.24 4.86357 192.49 4.79468 192.71 4.66669L195.02 3.31789C195.46 3.06191 195.73 2.59916 195.73 2.09705V0.738397C195.73 0.33474 195.4 0 194.98 0H191.06C190.65 0 190.31 0.324895 190.31 0.738397V4.12518C190.31 4.52883 190.64 4.86357 191.06 4.86357H191.97H191.98Z" fill="#82C708" fill-opacity="0.25"/>
<path d="M175.46 4.20397V0.817193C175.46 0.413536 175.13 0.0787964 174.71 0.0787964H170.79C170.38 0.0787964 170.04 0.403691 170.04 0.817193V2.17585C170.04 2.67796 170.31 3.14068 170.75 3.39665L173.06 4.74545C173.28 4.87344 173.54 4.94237 173.79 4.94237H174.7C175.11 4.94237 175.45 4.61748 175.45 4.20397H175.46Z" fill="#82C708" fill-opacity="0.25"/>
<path d="M182.22 4.20397V0.817193C182.22 0.413536 181.89 0.0787964 181.47 0.0787964H180.56C180.3 0.0787964 180.05 0.147725 179.83 0.275714L177.52 1.62451C177.08 1.88049 176.81 2.34321 176.81 2.84532V4.20397C176.81 4.60763 177.14 4.94237 177.56 4.94237H181.48C181.89 4.94237 182.23 4.61748 182.23 4.20397H182.22Z" fill="#82C708" fill-opacity="0.25"/>
<path d="M161.2 4.86357C161.61 4.86357 161.95 4.53868 161.95 4.12518V0.738397C161.95 0.33474 161.62 0 161.2 0H160.29C160.03 0 159.78 0.068929 159.56 0.196918L157.25 1.54572C156.81 1.80169 156.54 2.26444 156.54 2.76655V4.12518C156.54 4.52883 156.87 4.86357 157.29 4.86357H161.21H161.2Z" fill="#82C708" fill-opacity="0.25"/>
<path d="M246.81 11.076C247.07 11.076 247.32 11.0071 247.54 10.8791L249.85 9.53032C250.29 9.27434 250.56 8.81159 250.56 8.30948V6.95086C250.56 6.5472 250.23 6.21246 249.81 6.21246H245.89C245.48 6.21246 245.14 6.53736 245.14 6.95086V10.3376C245.14 10.7413 245.47 11.076 245.89 11.076H246.8H246.81Z" fill="#82C708" fill-opacity="0.25"/>
<path d="M188.98 2.10706V0.748406C188.98 0.34475 188.65 0.0100098 188.23 0.0100098H184.31C183.9 0.0100098 183.56 0.334904 183.56 0.748406V4.13519C183.56 4.53884 183.89 4.87358 184.31 4.87358H185.22C185.48 4.87358 185.73 4.80466 185.95 4.67667L188.26 3.32787C188.7 3.07189 188.97 2.60917 188.97 2.10706H188.98Z" fill="#82C708" fill-opacity="0.25"/>
<path d="M209.25 10.308V6.92126C209.25 6.5176 208.92 6.18286 208.5 6.18286H207.59C207.33 6.18286 207.08 6.25176 206.86 6.37975L204.55 7.72855C204.11 7.98453 203.84 8.44728 203.84 8.94938V10.308C203.84 10.7117 204.17 11.0464 204.59 11.0464H208.51C208.92 11.0464 209.26 10.7215 209.26 10.308H209.25Z" fill="#82C708" fill-opacity="0.25"/>
<path d="M215.3 9.43181C215.74 9.17583 216.01 8.71311 216.01 8.211V6.85235C216.01 6.44869 215.68 6.11395 215.26 6.11395H211.34C210.93 6.11395 210.59 6.43885 210.59 6.85235V10.2391C210.59 10.6428 210.92 10.9775 211.34 10.9775H212.25C212.51 10.9775 212.76 10.9086 212.98 10.7806L215.29 9.43181H215.3Z" fill="#82C708" fill-opacity="0.25"/>
<path d="M236.94 10.4163V7.02953C236.94 6.62588 236.61 6.29114 236.19 6.29114H232.27C231.86 6.29114 231.52 6.61603 231.52 7.02953V8.38819C231.52 8.8903 231.79 9.35302 232.23 9.60899L234.54 10.9578C234.76 11.0858 235.02 11.1547 235.27 11.1547H236.18C236.59 11.1547 236.93 10.8298 236.93 10.4163H236.94Z" fill="#82C708" fill-opacity="0.25"/>
<path d="M229.48 9.60899C229.92 9.35302 230.19 8.8903 230.19 8.38819V7.02953C230.19 6.62588 229.86 6.29114 229.44 6.29114H225.52C225.11 6.29114 224.77 6.61603 224.77 7.02953V10.4163C224.77 10.82 225.1 11.1547 225.52 11.1547H226.43C226.69 11.1547 226.94 11.0858 227.16 10.9578L229.47 9.60899H229.48Z" fill="#82C708" fill-opacity="0.25"/>
<path d="M225.77 4.86357C226.03 4.86357 226.28 4.79468 226.5 4.66669L228.81 3.31789C229.25 3.06191 229.52 2.59916 229.52 2.09705V0.738397C229.52 0.33474 229.19 0 228.77 0H224.85C224.44 0 224.1 0.324895 224.1 0.738397V4.12518C224.1 4.52883 224.43 4.86357 224.85 4.86357H225.76H225.77Z" fill="#82C708" fill-opacity="0.25"/>
<path d="M242.95 4.86357C243.36 4.86357 243.7 4.53868 243.7 4.12518V2.76655C243.7 2.26444 243.43 1.80169 242.99 1.54572L240.68 0.196918C240.46 0.068929 240.2 0 239.95 0H239.04C238.63 0 238.29 0.324895 238.29 0.738397V4.12518C238.29 4.52883 238.62 4.86357 239.04 4.86357H242.96H242.95Z" fill="#82C708" fill-opacity="0.25"/>
<path d="M238.29 6.96063V10.3474C238.29 10.7511 238.62 11.0858 239.04 11.0858H239.95C240.21 11.0858 240.46 11.0169 240.68 10.8889L242.99 9.54009C243.43 9.28411 243.7 8.82139 243.7 8.31928V6.96063C243.7 6.55697 243.37 6.22223 242.95 6.22223H239.03C238.62 6.22223 238.28 6.54712 238.28 6.96063H238.29Z" fill="#82C708" fill-opacity="0.25"/>
<path d="M256.47 11.076C256.88 11.076 257.22 10.7511 257.22 10.3376V6.95086C257.22 6.5472 256.89 6.21246 256.47 6.21246H252.55C252.14 6.21246 251.8 6.53736 251.8 6.95086V8.30948C251.8 8.81159 252.07 9.27434 252.51 9.53032L254.82 10.8791C255.04 11.0071 255.3 11.076 255.55 11.076H256.46H256.47Z" fill="#82C708" fill-opacity="0.25"/>
<path d="M147.69 11.076C148.1 11.076 148.44 10.7511 148.44 10.3376V6.95086C148.44 6.5472 148.11 6.21246 147.69 6.21246H146.78C146.52 6.21246 146.27 6.28136 146.05 6.40935L143.74 7.75815C143.3 8.01413 143.03 8.47688 143.03 8.97899V10.3376C143.03 10.7413 143.36 11.076 143.78 11.076H147.7H147.69Z" fill="#82C708" fill-opacity="0.25"/>
<path d="M150.53 6.16315C150.12 6.16315 149.78 6.48804 149.78 6.90154V10.2883C149.78 10.692 150.11 11.0267 150.53 11.0267H151.44C151.7 11.0267 151.95 10.9578 152.17 10.8298L154.48 9.481C154.92 9.22503 155.19 8.76231 155.19 8.2602V6.90154C155.19 6.49789 154.86 6.16315 154.44 6.16315H150.52H150.53Z" fill="#82C708" fill-opacity="0.25"/>
<path d="M180.56 6.19275C180.3 6.19275 180.05 6.26168 179.83 6.38967L177.52 7.73847C177.08 7.99444 176.81 8.45716 176.81 8.95927V10.3179C176.81 10.7216 177.14 11.0563 177.56 11.0563H181.48C181.89 11.0563 182.23 10.7314 182.23 10.3179V6.93115C182.23 6.52749 181.9 6.19275 181.48 6.19275H180.57H180.56Z" fill="#82C708" fill-opacity="0.25"/>
<path d="M155.12 23.3924C155.53 23.3924 155.87 23.0675 155.87 22.654V19.2672C155.87 18.8635 155.54 18.5288 155.12 18.5288H151.2C150.79 18.5288 150.45 18.8537 150.45 19.2672V20.6259C150.45 21.128 150.72 21.5907 151.16 21.8467L153.47 23.1955C153.69 23.3235 153.95 23.3924 154.2 23.3924H155.11H155.12Z" fill="#82C708" fill-opacity="0.25"/>
<path d="M145.36 23.3924C145.62 23.3924 145.87 23.3235 146.09 23.1955L148.4 21.8467C148.84 21.5907 149.11 21.128 149.11 20.6259V19.2672C149.11 18.8635 148.78 18.5288 148.36 18.5288H144.44C144.03 18.5288 143.69 18.8537 143.69 19.2672V22.654C143.69 23.0576 144.02 23.3924 144.44 23.3924H145.35H145.36Z" fill="#82C708" fill-opacity="0.25"/>
<path d="M144.45 24.7117C144.04 24.7117 143.7 25.0366 143.7 25.4501V26.8087C143.7 27.3108 143.97 27.7735 144.41 28.0295L146.72 29.3784C146.94 29.5063 147.2 29.5752 147.45 29.5752H148.36C148.77 29.5752 149.11 29.2503 149.11 28.8368V25.4501C149.11 25.0464 148.78 24.7117 148.36 24.7117H144.44H144.45Z" fill="#82C708" fill-opacity="0.25"/>
<path d="M154.21 24.7117C153.95 24.7117 153.7 24.7806 153.48 24.9086L151.17 26.2574C150.73 26.5134 150.46 26.9761 150.46 27.4782V28.8368C150.46 29.2405 150.79 29.5752 151.21 29.5752H155.13C155.54 29.5752 155.88 29.2503 155.88 28.8368V25.4501C155.88 25.0464 155.55 24.7117 155.13 24.7117H154.22H154.21Z" fill="#82C708" fill-opacity="0.25"/>
<path d="M146.78 12.3263C146.52 12.3263 146.27 12.3952 146.05 12.5232L143.74 13.872C143.3 14.128 143.03 14.5907 143.03 15.0928V16.4515C143.03 16.8551 143.36 17.1899 143.78 17.1899H147.7C148.11 17.1899 148.45 16.865 148.45 16.4515V13.0647C148.45 12.661 148.12 12.3263 147.7 12.3263H146.79H146.78Z" fill="#82C708" fill-opacity="0.25"/>
<path d="M236.94 35.1378V31.751C236.94 31.3474 236.61 31.0126 236.19 31.0126H235.28C235.02 31.0126 234.77 31.0816 234.55 31.2096L232.24 32.5584C231.8 32.8143 231.53 33.2771 231.53 33.7792V35.1378C231.53 35.5415 231.86 35.8762 232.28 35.8762H236.2C236.61 35.8762 236.95 35.5513 236.95 35.1378H236.94Z" fill="#82C708" fill-opacity="0.25"/>
<path d="M258.56 37.865V41.2518C258.56 41.6554 258.89 41.9902 259.31 41.9902H263.23C263.64 41.9902 263.98 41.6653 263.98 41.2518V39.8931C263.98 39.391 263.71 38.9283 263.27 38.6723L260.96 37.3235C260.74 37.1955 260.48 37.1266 260.23 37.1266H259.32C258.91 37.1266 258.57 37.4515 258.57 37.865H258.56Z" fill="#82C708" fill-opacity="0.25"/>
<path d="M266.02 38.6723C265.58 38.9283 265.31 39.391 265.31 39.8931V41.2518C265.31 41.6554 265.64 41.9902 266.06 41.9902H269.98C270.39 41.9902 270.73 41.6653 270.73 41.2518V37.865C270.73 37.4613 270.4 37.1266 269.98 37.1266H269.07C268.81 37.1266 268.56 37.1955 268.34 37.3235L266.03 38.6723H266.02Z" fill="#82C708" fill-opacity="0.25"/>
<path d="M269.98 35.7975C270.39 35.7975 270.73 35.4726 270.73 35.0591V31.6724C270.73 31.2687 270.4 30.934 269.98 30.934H266.06C265.65 30.934 265.31 31.2589 265.31 31.6724V33.031C265.31 33.5331 265.58 33.9958 266.02 34.2518L268.33 35.6006C268.55 35.7286 268.81 35.7975 269.06 35.7975H269.97H269.98Z" fill="#82C708" fill-opacity="0.25"/>
<path d="M260.22 35.7975C260.48 35.7975 260.73 35.7286 260.95 35.6006L263.26 34.2518C263.7 33.9958 263.97 33.5331 263.97 33.031V31.6724C263.97 31.2687 263.64 30.934 263.22 30.934H259.3C258.89 30.934 258.55 31.2589 258.55 31.6724V35.0591C258.55 35.4628 258.88 35.7975 259.3 35.7975H260.21H260.22Z" fill="#82C708" fill-opacity="0.25"/>
<path d="M243.7 35.1378V31.751C243.7 31.3474 243.37 31.0126 242.95 31.0126H239.03C238.62 31.0126 238.28 31.3375 238.28 31.751V33.1097C238.28 33.6118 238.55 34.0745 238.99 34.3305L241.3 35.6793C241.52 35.8073 241.78 35.8762 242.03 35.8762H242.94C243.35 35.8762 243.69 35.5513 243.69 35.1378H243.7Z" fill="#82C708" fill-opacity="0.25"/>
<path d="M224.78 31.6625V35.0493C224.78 35.4529 225.11 35.7876 225.53 35.7876H226.44C226.7 35.7876 226.95 35.7187 227.17 35.5908L229.48 34.242C229.92 33.986 230.19 33.5232 230.19 33.0211V31.6625C230.19 31.2588 229.86 30.9241 229.44 30.9241H225.52C225.11 30.9241 224.77 31.249 224.77 31.6625H224.78Z" fill="#82C708" fill-opacity="0.25"/>
<path d="M223.43 41.2616V37.8748C223.43 37.4712 223.1 37.1364 222.68 37.1364H221.77C221.51 37.1364 221.26 37.2053 221.04 37.3333L218.73 38.6821C218.29 38.9381 218.02 39.4009 218.02 39.903V41.2616C218.02 41.6652 218.35 42 218.77 42H222.69C223.1 42 223.44 41.6751 223.44 41.2616H223.43Z" fill="#82C708" fill-opacity="0.25"/>
<path d="M230.19 41.2616V37.8748C230.19 37.4712 229.86 37.1364 229.44 37.1364H225.52C225.11 37.1364 224.77 37.4613 224.77 37.8748V39.2335C224.77 39.7356 225.04 40.1983 225.48 40.4543L227.79 41.8031C228.01 41.9311 228.27 42 228.52 42H229.43C229.84 42 230.18 41.6751 230.18 41.2616H230.19Z" fill="#82C708" fill-opacity="0.25"/>
<path d="M250.46 35.1378V31.751C250.46 31.3474 250.13 31.0126 249.71 31.0126H248.8C248.54 31.0126 248.29 31.0816 248.07 31.2096L245.76 32.5584C245.32 32.8143 245.05 33.2771 245.05 33.7792V35.1378C245.05 35.5415 245.38 35.8762 245.8 35.8762H249.72C250.13 35.8762 250.47 35.5513 250.47 35.1378H250.46Z" fill="#82C708" fill-opacity="0.25"/>
<path d="M257.21 33.0408V31.6822C257.21 31.2785 256.88 30.9438 256.46 30.9438H252.54C252.13 30.9438 251.79 31.2687 251.79 31.6822V35.069C251.79 35.4726 252.12 35.8074 252.54 35.8074H253.45C253.71 35.8074 253.96 35.7384 254.18 35.6104L256.49 34.2616C256.93 34.0057 257.2 33.5429 257.2 33.0408H257.21Z" fill="#82C708" fill-opacity="0.25"/>
<path d="M277.48 35.0295V31.6428C277.48 31.2391 277.15 30.9044 276.73 30.9044H275.82C275.56 30.9044 275.31 30.9733 275.09 31.1013L272.78 32.4501C272.34 32.7061 272.07 33.1688 272.07 33.6709V35.0295C272.07 35.4332 272.4 35.7679 272.82 35.7679H276.74C277.15 35.7679 277.49 35.443 277.49 35.0295H277.48Z" fill="#82C708" fill-opacity="0.25"/>
<path d="M283.53 34.3305C283.97 34.0745 284.24 33.6118 284.24 33.1097V31.751C284.24 31.3474 283.91 31.0126 283.49 31.0126H279.57C279.16 31.0126 278.82 31.3375 278.82 31.751V35.1378C278.82 35.5415 279.15 35.8762 279.57 35.8762H280.48C280.74 35.8762 280.99 35.8073 281.21 35.6793L283.52 34.3305H283.53Z" fill="#82C708" fill-opacity="0.25"/>
<path d="M245.75 38.6723C245.31 38.9283 245.04 39.391 245.04 39.8931V41.2518C245.04 41.6554 245.37 41.9902 245.79 41.9902H249.71C250.12 41.9902 250.46 41.6653 250.46 41.2518V37.865C250.46 37.4613 250.13 37.1266 249.71 37.1266H248.8C248.54 37.1266 248.29 37.1955 248.07 37.3235L245.76 38.6723H245.75Z" fill="#82C708" fill-opacity="0.25"/>
</svg>
