<svg width="70" height="120" viewBox="0 0 70 120" fill="none" xmlns="http://www.w3.org/2000/svg">
<path d="M38.1361 115.908L38.249 116.253H38.6112H53.5V119.5H20.046L0.526219 59.9972L20.046 0.5H53.5V3.74738H38.6112H38.249L38.1361 4.09155L19.8495 59.8414L19.7984 59.9972L19.8495 60.153L38.1361 115.908Z" stroke="#82C708"/>
<path d="M27.6838 0L8 59.9972L27.6838 120H62V115.753H46.6112L28.3246 59.9972L46.6112 4.24738H62V0H27.6838Z" fill="#323131"/>
<path d="M54.1361 115.908L54.249 116.253H54.6112H69.5V119.5H36.046L16.5262 59.9972L36.046 0.5H69.5V3.74738H54.6112H54.249L54.1361 4.09155L35.8495 59.8414L35.7984 59.9972L35.8495 60.153L54.1361 115.908Z" stroke="#82C708"/>
</svg>
