<svg width="24" height="24" viewBox="0 0 24 24" fill="none" xmlns="http://www.w3.org/2000/svg">
<path d="M3.58 21.196H17.839L17.158 18.991L18.787 20.389L20.28 21.727L23 24V2.475C22.932 1.137 21.78 0 20.352 0L3.585 0.003C2.158 0.003 1 1.142 1 2.48V18.72C1 20.131 2.156 21.196 3.58 21.196ZM14.128 5.683L14.095 5.695L14.107 5.683H14.128ZM6.497 6.952C8.33 5.618 10.029 5.682 10.029 5.682L10.166 5.817C7.923 6.352 6.906 7.354 6.906 7.354C6.906 7.354 7.178 7.221 7.653 7.018C10.674 5.83 13.973 5.916 17.027 7.42C17.027 7.42 16.008 6.483 13.903 5.883L14.089 5.7C14.38 5.701 15.92 5.755 17.568 6.96C17.568 6.96 19.412 10.11 19.412 13.98C19.351 13.906 18.268 15.646 15.481 15.706C15.481 15.706 15.009 15.172 14.673 14.706C16.303 14.238 16.913 13.302 16.913 13.302C16.378 13.639 15.89 13.839 15.494 14.039C14.885 14.307 14.275 14.439 13.666 14.574C10.782 15.042 9.163 14.259 7.633 13.638L7.11 13.372C7.11 13.372 7.719 14.308 9.284 14.776C8.873 15.245 8.466 15.778 8.466 15.778C5.68 15.712 4.664 13.972 4.664 13.972C4.664 10.096 6.497 6.952 6.497 6.952Z" fill="currentColor"/>
<path d="M14.308 12.7712C15.019 12.7712 15.598 12.1712 15.598 11.4312C15.598 10.6962 15.022 10.0962 14.308 10.0962V10.0992C13.6 10.0992 13.02 10.6972 13.018 11.4372C13.018 12.1712 13.597 12.7712 14.308 12.7712Z" fill="currentColor"/>
<path d="M9.69002 12.7712C10.401 12.7712 10.98 12.1712 10.98 11.4312C10.98 10.6962 10.405 10.0962 9.69403 10.0962L9.69002 10.0992C8.97902 10.0992 8.40002 10.6972 8.40002 11.4372C8.40002 12.1712 8.97902 12.7712 9.69002 12.7712Z" fill="currentColor"/>
</svg>
